<svg xmlns="http://www.w3.org/2000/svg" xmlns:v="https://svgstorm.com"
viewBox = "0 0 1024 768"
width="1024"
height="768">
<g fill="None" fill-opacity="0.0" stroke="#131311" stroke-opacity="1.00" stroke-width="0.3"><path d="
M 0.00 768.00 
L 1024.00 768.00
L 1024.00 0.00
L 0.00 0.00
L 0.00 768.00
M 385.00 131.00 
C 385.37 139.20 376.54 144.45 378.00 152.00
C 373.18 152.29 363.90 161.55 359.70 154.30 C 355.51 147.04 353.67 145.26 355.01 136.99 C 356.35 128.72 353.91 122.99 346.77 119.23 C 339.63 115.47 340.56 107.73 337.01 101.99 C 333.46 96.25 333.63 87.54 335.78 80.78 C 337.92 74.01 338.82 67.70 343.75 62.75 C 348.69 57.80 352.20 53.21 359.03 51.03 C 365.85 48.84 373.36 46.43 380.67 47.33 C 387.98 48.23 393.53 50.36 399.69 54.31 C 405.86 58.25 407.90 63.78 411.92 69.08 C 415.94 74.38 417.60 82.74 417.00 90.00 C 416.40 97.26 415.96 104.78 411.69 110.69 C 407.43 116.61 405.33 121.03 398.32 124.32 C 391.31 127.61 397.36 135.46 400.90 139.10 C 404.44 142.74 409.47 149.71 413.25 152.75 C 417.02 155.80 432.67 157.32 429.67 162.67 C 426.66 168.03 416.41 158.28 411.92 157.08 C 407.44 155.87 402.78 147.78 398.25 144.75 C 393.71 141.73 391.93 131.67 385.99 131.01
M 671.00 60.00 
C 682.16 62.31 690.48 72.27 692.00 84.00 C 693.51 95.73 688.71 107.10 687.00 120.00 C 685.29 132.90 678.40 140.66 677.23 155.23 C 676.06 169.80 657.49 162.98 646.78 160.22 C 636.07 157.47 615.23 157.57 620.11 144.11 C 624.98 130.65 625.29 119.98 629.00 108.00 C 632.70 96.01 632.33 83.23 638.92 72.92 C 645.52 62.62 659.44 57.61 671.00 60.00
M 821.00 186.00 
C 822.28 192.15 818.11 203.72 822.26 208.74 C 826.40 213.77 835.69 212.27 837.00 220.00
C 830.15 222.43 824.29 226.16 817.00 228.00
C 816.53 235.65 813.96 241.75 810.00 248.00
C 805.22 244.45 802.71 235.48 797.92 232.08 C 793.13 228.69 775.95 233.62 776.79 226.77 C 777.62 219.92 788.84 218.33 789.00 211.00
C 784.53 206.10 785.12 198.43 784.00 192.00
C 790.86 189.35 798.44 200.38 804.67 197.67 C 810.90 194.96 812.76 186.67 821.00 186.00
M 200.00 192.00 
C 201.37 197.59 201.33 203.25 198.00 208.00
C 187.70 208.17 178.30 211.76 168.00 212.00
C 168.83 221.51 154.99 228.61 149.08 218.92 C 143.18 209.22 154.28 200.04 165.00 204.00
C 167.03 211.85 173.57 205.52 179.00 206.00 C 184.44 206.49 191.65 204.87 197.00 204.00
C 197.83 200.77 197.78 198.27 197.00 195.00
C 191.55 193.41 188.07 196.88 184.00 199.00
C 179.91 189.73 194.80 188.46 200.00 192.00
M 506.00 264.00 
C 534.75 268.11 538.05 302.40 538.00 326.00 C 537.95 349.60 526.82 382.62 497.33 378.67 C 467.84 374.72 465.07 340.49 465.00 317.00 C 464.93 293.51 476.20 259.74 506.00 264.00
M 421.00 351.00 
C 414.60 349.87 405.08 352.51 399.00 351.00 C 392.92 349.49 381.25 354.25 377.00 350.00
C 369.82 342.82 380.03 329.89 384.25 323.25 C 388.48 316.62 394.47 308.50 398.77 300.77 C 403.07 293.04 408.90 287.03 413.30 278.30 C 417.71 269.58 425.94 261.75 438.00 266.00
C 438.00 289.33 438.00 312.67 438.00 336.00
C 443.00 336.00 448.00 336.00 453.00 336.00
C 451.86 339.79 455.80 350.63 449.97 350.97 C 444.14 351.31 437.06 349.45 438.00 357.00 C 438.94 364.56 437.29 368.75 438.00 376.00
C 432.33 376.00 426.67 376.00 421.00 376.00
C 421.00 367.67 421.00 359.33 421.00 351.00
M 595.00 351.00 
C 588.84 349.83 577.65 352.56 572.00 351.00 C 566.35 349.44 553.12 354.46 550.00 350.00
C 545.33 343.33 552.42 332.33 555.92 326.92 C 559.42 321.50 563.95 315.39 567.25 309.25 C 570.56 303.12 575.58 298.59 578.77 291.77 C 581.96 284.95 586.43 281.52 589.77 273.77 C 593.11 266.02 603.26 264.16 612.00 266.00
C 612.00 289.33 612.00 312.67 612.00 336.00
C 617.00 336.00 622.00 336.00 627.00 336.00
C 627.00 341.00 627.00 346.00 627.00 351.00
C 622.00 351.00 617.00 351.00 612.00 351.00
C 612.00 359.33 612.00 367.67 612.00 376.00
C 606.33 376.00 600.67 376.00 595.00 376.00
C 595.00 367.67 595.00 359.33 595.00 351.00
M 186.00 414.00 
C 196.91 416.26 204.22 427.49 206.98 438.02 C 209.73 448.56 199.47 463.94 194.68 470.68 C 189.89 477.43 181.60 498.69 174.08 489.92 C 166.57 481.15 164.08 470.97 156.70 462.30 C 149.32 453.64 147.17 437.91 153.32 427.32 C 159.47 416.73 173.56 411.42 186.00 414.00
M 889.00 424.00 
C 889.76 434.45 887.36 448.47 886.00 458.00 C 884.64 467.53 869.33 475.71 875.00 462.00
C 865.77 472.46 856.71 476.36 847.25 489.25 C 837.78 502.13 815.79 485.32 824.92 471.92 C 834.06 458.52 843.76 455.84 851.00 442.00
C 837.86 445.39 849.88 433.79 853.00 430.00
C 865.18 428.78 877.34 427.50 889.00 424.00
M 345.00 595.00 
C 351.41 602.69 349.98 615.80 353.10 623.90 C 356.22 631.99 373.97 634.10 367.22 645.22 C 360.47 656.34 351.75 640.21 345.75 637.25 C 339.75 634.28 323.91 644.15 315.92 638.08 C 307.94 632.00 301.29 626.46 301.00 616.00 C 300.71 605.54 305.39 597.54 314.08 592.08 C 322.77 586.63 336.21 590.91 345.00 595.00
M 554.00 603.00 
C 554.12 610.15 551.32 616.54 549.00 623.00
C 537.63 619.71 528.20 631.04 521.75 638.75 C 515.31 646.46 502.54 653.68 508.00 664.00
C 502.44 669.01 499.43 672.37 494.25 678.25 C 489.06 684.13 476.93 676.83 479.00 670.00 C 481.07 663.17 487.16 658.71 492.25 654.25 C 497.33 649.79 506.34 653.48 509.75 645.75 C 513.16 638.02 519.19 637.18 523.75 630.75 C 528.31 624.33 536.17 622.21 535.00 613.00 C 533.83 603.79 548.54 606.40 554.00 603.00
M 737.00 631.00 
C 734.88 638.94 735.09 649.57 732.07 657.07 C 729.06 664.57 732.27 678.36 722.00 679.00 C 711.73 679.63 705.41 673.74 694.99 674.01 C 684.57 674.28 679.84 668.64 668.77 668.23 C 657.70 667.81 655.73 662.34 659.33 651.33 C 662.93 640.32 663.12 636.48 664.77 624.77 C 666.42 613.06 675.68 617.40 685.07 618.93 C 694.47 620.45 702.94 622.29 712.00 624.00 C 721.06 625.71 728.86 626.67 737.00 631.00 Z"/>
</g>
<g fill="None" fill-opacity="0.0" stroke="#4D4D4D" stroke-opacity="1.00" stroke-width="0.3"><path d="
M 385.99 131.01 
C 391.93 131.67 393.71 141.73 398.25 144.75 C 402.78 147.78 407.44 155.87 411.92 157.08 C 416.41 158.28 426.66 168.03 429.67 162.67 C 432.67 157.32 417.02 155.80 413.25 152.75 C 409.47 149.71 404.44 142.74 400.90 139.10 C 397.36 135.46 391.31 127.61 398.32 124.32 C 405.33 121.03 407.43 116.61 411.69 110.69 C 415.96 104.78 416.40 97.26 417.00 90.00 C 417.60 82.74 415.94 74.38 411.92 69.08 C 407.90 63.78 405.86 58.25 399.69 54.31 C 393.53 50.36 387.98 48.23 380.67 47.33 C 373.36 46.43 365.85 48.84 359.03 51.03 C 352.20 53.21 348.69 57.80 343.75 62.75 C 338.82 67.70 337.92 74.01 335.78 80.78 C 333.63 87.54 333.46 96.25 337.01 101.99 C 340.56 107.73 339.63 115.47 346.77 119.23 C 353.91 122.99 356.35 128.72 355.01 136.99 C 353.67 145.26 355.51 147.04 359.70 154.30 C 363.90 161.55 373.18 152.29 378.00 152.00
C 376.54 144.45 385.37 139.20 385.00 131.00
M 378.00 138.00 
C 365.83 141.71 359.37 135.14 360.00 125.00 C 360.63 114.86 348.83 116.73 345.23 108.77 C 341.63 100.81 339.41 92.75 340.98 83.98 C 342.54 75.20 344.56 69.27 350.75 62.75 C 356.95 56.24 364.52 54.93 373.00 54.00 C 381.48 53.07 391.49 55.04 397.75 60.25 C 404.00 65.47 407.93 71.44 410.31 78.69 C 412.68 85.95 411.28 99.47 407.69 105.69 C 404.11 111.92 399.91 118.81 392.75 121.75 C 385.60 124.70 378.06 127.96 378.00 138.00 Z"/>
</g>
<g fill="None" fill-opacity="0.0" stroke="#131311" stroke-opacity="1.00" stroke-width="0.3"><path d="
M 378.00 138.00 
C 378.06 127.96 385.60 124.70 392.75 121.75 C 399.91 118.81 404.11 111.92 407.69 105.69 C 411.28 99.47 412.68 85.95 410.31 78.69 C 407.93 71.44 404.00 65.47 397.75 60.25 C 391.49 55.04 381.48 53.07 373.00 54.00 C 364.52 54.93 356.95 56.24 350.75 62.75 C 344.56 69.27 342.54 75.20 340.98 83.98 C 339.41 92.75 341.63 100.81 345.23 108.77 C 348.83 116.73 360.63 114.86 360.00 125.00 C 359.37 135.14 365.83 141.71 378.00 138.00 Z"/>
</g>
<g fill="None" fill-opacity="0.0" stroke="#4C4C4C" stroke-opacity="1.00" stroke-width="0.3"><path d="
M 671.00 60.00 
C 659.44 57.61 645.52 62.62 638.92 72.92 C 632.33 83.23 632.70 96.01 629.00 108.00 C 625.29 119.98 624.98 130.65 620.11 144.11 C 615.23 157.57 636.07 157.47 646.78 160.22 C 657.49 162.98 676.06 169.80 677.23 155.23 C 678.40 140.66 685.29 132.90 687.00 120.00 C 688.71 107.10 693.51 95.73 692.00 84.00 C 690.48 72.27 682.16 62.31 671.00 60.00
M 670.00 159.00 
C 656.77 155.62 647.79 154.95 634.00 152.00 C 620.21 149.05 631.13 131.44 632.77 120.77 C 634.41 110.11 638.73 95.70 640.93 84.93 C 643.13 74.15 653.85 64.54 665.00 66.00 C 676.16 67.46 686.74 75.89 687.00 88.00 C 687.26 100.12 680.67 112.12 679.07 124.07 C 677.47 136.03 673.68 147.65 670.00 159.00 Z"/>
</g>
<g fill="None" fill-opacity="0.0" stroke="#131311" stroke-opacity="1.00" stroke-width="0.3"><path d="
M 670.00 159.00 
C 673.68 147.65 677.47 136.03 679.07 124.07 C 680.67 112.12 687.26 100.12 687.00 88.00 C 686.74 75.89 676.16 67.46 665.00 66.00 C 653.85 64.54 643.13 74.15 640.93 84.93 C 638.73 95.70 634.41 110.11 632.77 120.77 C 631.13 131.44 620.21 149.05 634.00 152.00 C 647.79 154.95 656.77 155.62 670.00 159.00 Z"/>
</g>
<g fill="None" fill-opacity="0.0" stroke="#4B4B4B" stroke-opacity="1.00" stroke-width="0.3"><path d="
M 821.00 186.00 
C 812.76 186.67 810.90 194.96 804.67 197.67 C 798.44 200.38 790.86 189.35 784.00 192.00
C 785.12 198.43 784.53 206.10 789.00 211.00
C 788.84 218.33 777.62 219.92 776.79 226.77 C 775.95 233.62 793.13 228.69 797.92 232.08 C 802.71 235.48 805.22 244.45 810.00 248.00
C 813.96 241.75 816.53 235.65 817.00 228.00
C 824.29 226.16 830.15 222.43 837.00 220.00
C 835.69 212.27 826.40 213.77 822.26 208.74 C 818.11 203.72 822.28 192.15 821.00 186.00
M 817.00 193.00 
C 817.52 198.48 815.75 205.90 818.31 210.69 C 820.87 215.49 829.12 213.39 828.00 220.00
C 814.79 219.48 812.78 230.49 809.00 240.00
C 804.88 237.04 805.02 233.21 802.08 228.92 C 799.13 224.64 789.60 228.14 785.00 227.00
C 784.69 217.78 797.59 216.51 791.02 205.98 C 784.46 195.44 798.87 199.99 805.00 203.00
C 808.04 198.59 813.09 196.44 817.00 193.00 Z"/>
</g>
<g fill="None" fill-opacity="0.0" stroke="#4B4B4B" stroke-opacity="1.00" stroke-width="0.3"><path d="
M 200.00 192.00 
C 194.80 188.46 179.91 189.73 184.00 199.00
C 188.07 196.88 191.55 193.41 197.00 195.00
C 197.78 198.27 197.83 200.77 197.00 204.00
C 191.65 204.87 184.44 206.49 179.00 206.00 C 173.57 205.52 167.03 211.85 165.00 204.00
C 154.28 200.04 143.18 209.22 149.08 218.92 C 154.99 228.61 168.83 221.51 168.00 212.00
C 178.30 211.76 187.70 208.17 198.00 208.00
C 201.33 203.25 201.37 197.59 200.00 192.00
M 161.00 206.00 
C 166.22 210.74 163.62 221.74 155.33 218.67 C 147.04 215.60 153.80 203.87 161.00 206.00 Z"/>
</g>
<g fill="None" fill-opacity="0.0" stroke="#131311" stroke-opacity="1.00" stroke-width="0.3"><path d="
M 817.00 193.00 
C 813.09 196.44 808.04 198.59 805.00 203.00
C 798.87 199.99 784.46 195.44 791.02 205.98 C 797.59 216.51 784.69 217.78 785.00 227.00
C 789.60 228.14 799.13 224.64 802.08 228.92 C 805.02 233.21 804.88 237.04 809.00 240.00
C 812.78 230.49 814.79 219.48 828.00 220.00
C 829.12 213.39 820.87 215.49 818.31 210.69 C 815.75 205.90 817.52 198.48 817.00 193.00 Z"/>
</g>
<g fill="None" fill-opacity="0.0" stroke="#131311" stroke-opacity="1.00" stroke-width="0.3"><path d="
M 161.00 206.00 
C 153.80 203.87 147.04 215.60 155.33 218.67 C 163.62 221.74 166.22 210.74 161.00 206.00 Z"/>
</g>
<g fill="None" fill-opacity="0.0" stroke="#F5F5F5" stroke-opacity="1.00" stroke-width="0.3"><path d="
M 506.00 264.00 
C 476.20 259.74 464.93 293.51 465.00 317.00 C 465.07 340.49 467.84 374.72 497.33 378.67 C 526.82 382.62 537.95 349.60 538.00 326.00 C 538.05 302.40 534.75 268.11 506.00 264.00
M 506.00 279.00 
C 517.02 282.35 516.76 296.39 519.00 306.00 C 521.24 315.61 518.76 333.94 518.02 344.02 C 517.28 354.11 509.33 368.16 497.33 363.67 C 485.33 359.18 486.56 347.55 484.01 336.99 C 481.46 326.44 483.89 309.40 485.00 299.00 C 486.11 288.60 493.33 275.16 506.00 279.00 Z"/>
</g>
<g fill="None" fill-opacity="0.0" stroke="#F6F6F6" stroke-opacity="1.00" stroke-width="0.3"><path d="
M 377.00 350.00 
C 381.65 353.26 393.91 347.56 399.00 350.00 C 404.09 352.44 417.71 346.29 421.00 351.00
C 421.00 359.33 421.00 367.67 421.00 376.00
C 426.67 376.00 432.33 376.00 438.00 376.00
C 437.29 368.75 438.94 364.56 438.00 357.00 C 437.06 349.45 444.14 351.31 449.97 350.97 C 455.80 350.63 451.86 339.79 453.00 336.00
C 448.00 336.00 443.00 336.00 438.00 336.00
C 438.00 312.67 438.00 289.33 438.00 266.00
C 425.94 261.75 417.71 269.58 413.30 278.30 C 408.90 287.03 403.07 293.04 398.77 300.77 C 394.47 308.50 388.48 316.62 384.25 323.25 C 380.03 329.89 369.82 342.82 377.00 350.00
M 421.00 336.00 
C 416.41 336.41 410.52 336.09 406.00 336.00 C 401.48 335.91 393.95 337.45 394.00 334.00
C 394.09 327.76 403.72 318.47 406.77 312.77 C 409.82 307.07 415.08 296.30 420.00 292.00
C 420.41 291.64 420.08 289.02 422.00 290.00
C 421.33 305.17 423.33 321.66 421.00 336.00 Z"/>
</g>
<g fill="None" fill-opacity="0.0" stroke="#F5F5F5" stroke-opacity="1.00" stroke-width="0.3"><path d="
M 550.00 350.00 
C 556.16 351.17 567.35 348.44 573.00 350.00 C 578.65 351.56 591.88 346.54 595.00 351.00
C 595.00 359.33 595.00 367.67 595.00 376.00
C 600.67 376.00 606.33 376.00 612.00 376.00
C 612.00 367.67 612.00 359.33 612.00 351.00
C 617.00 351.00 622.00 351.00 627.00 351.00
C 627.00 346.00 627.00 341.00 627.00 336.00
C 622.00 336.00 617.00 336.00 612.00 336.00
C 612.00 312.67 612.00 289.33 612.00 266.00
C 603.26 264.16 593.11 266.02 589.77 273.77 C 586.43 281.52 581.96 284.95 578.77 291.77 C 575.58 298.59 570.56 303.12 567.25 309.25 C 563.95 315.39 559.42 321.50 555.92 326.92 C 552.42 332.33 545.33 343.33 550.00 350.00
M 595.00 291.00 
C 595.00 306.00 595.00 321.00 595.00 336.00
C 585.67 336.00 576.33 336.00 567.00 336.00
C 575.04 320.52 585.35 305.40 595.00 291.00 Z"/>
</g>
<g fill="None" fill-opacity="0.0" stroke="#161616" stroke-opacity="1.00" stroke-width="0.3"><path d="
M 506.00 279.00 
C 493.33 275.16 486.11 288.60 485.00 299.00 C 483.89 309.40 481.46 326.44 484.01 336.99 C 486.56 347.55 485.33 359.18 497.33 363.67 C 509.33 368.16 517.28 354.11 518.02 344.02 C 518.76 333.94 521.24 315.61 519.00 306.00 C 516.76 296.39 517.02 282.35 506.00 279.00 Z"/>
</g>
<g fill="None" fill-opacity="0.0" stroke="#8F8F8F" stroke-opacity="1.00" stroke-width="0.3"><path d="
M 420.00 292.00 
C 419.08 297.73 421.87 306.19 421.00 313.00 C 420.13 319.81 421.00 328.06 421.00 335.00
C 421.00 335.50 421.00 336.00 421.00 336.00
C 423.33 321.66 421.33 305.17 422.00 290.00
C 420.08 289.02 420.41 291.64 420.00 292.00 Z"/>
</g>
<g fill="None" fill-opacity="0.0" stroke="#1A1B1A" stroke-opacity="1.00" stroke-width="0.3"><path d="
M 595.00 291.00 
C 585.35 305.40 575.04 320.52 567.00 336.00
C 576.33 336.00 585.67 336.00 595.00 336.00
C 595.00 321.00 595.00 306.00 595.00 291.00 Z"/>
</g>
<g fill="None" fill-opacity="0.0" stroke="#181818" stroke-opacity="1.00" stroke-width="0.3"><path d="
M 394.00 334.00 
C 395.73 336.97 403.54 334.30 407.00 335.00 C 410.46 335.70 417.22 334.66 421.00 335.00
C 421.00 328.06 420.13 319.81 421.00 313.00 C 421.87 306.19 419.08 297.73 420.00 292.00
C 415.08 296.30 409.82 307.07 406.77 312.77 C 403.72 318.47 394.09 327.76 394.00 334.00 Z"/>
</g>
<g fill="None" fill-opacity="0.0" stroke="#494A4A" stroke-opacity="1.00" stroke-width="0.3"><path d="
M 421.00 336.00 
C 421.00 336.00 421.00 335.50 421.00 335.00
C 417.22 334.66 410.46 335.70 407.00 335.00 C 403.54 334.30 395.73 336.97 394.00 334.00
C 393.95 337.45 401.48 335.91 406.00 336.00 C 410.52 336.09 416.41 336.41 421.00 336.00 Z"/>
</g>
<g fill="None" fill-opacity="0.0" stroke="#7C7C7C" stroke-opacity="1.00" stroke-width="0.3"><path d="
M 421.00 351.00 
C 417.71 346.29 404.09 352.44 399.00 350.00 C 393.91 347.56 381.65 353.26 377.00 350.00
C 381.25 354.25 392.92 349.49 399.00 351.00 C 405.08 352.51 414.60 349.87 421.00 351.00 Z"/>
</g>
<g fill="None" fill-opacity="0.0" stroke="#7F7F7F" stroke-opacity="1.00" stroke-width="0.3"><path d="
M 595.00 351.00 
C 591.88 346.54 578.65 351.56 573.00 350.00 C 567.35 348.44 556.16 351.17 550.00 350.00
C 553.12 354.46 566.35 349.44 572.00 351.00 C 577.65 352.56 588.84 349.83 595.00 351.00 Z"/>
</g>
<g fill="None" fill-opacity="0.0" stroke="#4C4C4C" stroke-opacity="1.00" stroke-width="0.3"><path d="
M 186.00 414.00 
C 173.56 411.42 159.47 416.73 153.32 427.32 C 147.17 437.91 149.32 453.64 156.70 462.30 C 164.08 470.97 166.57 481.15 174.08 489.92 C 181.60 498.69 189.89 477.43 194.68 470.68 C 199.47 463.94 209.73 448.56 206.98 438.02 C 204.22 427.49 196.91 416.26 186.00 414.00
M 176.00 486.00 
C 170.46 471.28 160.09 463.58 155.01 448.99 C 149.94 434.40 164.27 416.71 180.00 418.00 C 195.73 419.29 207.47 438.41 200.07 452.07 C 192.67 465.74 188.09 476.73 176.00 486.00 Z"/>
</g>
<g fill="None" fill-opacity="0.0" stroke="#131311" stroke-opacity="1.00" stroke-width="0.3"><path d="
M 176.00 486.00 
C 188.09 476.73 192.67 465.74 200.07 452.07 C 207.47 438.41 195.73 419.29 180.00 418.00 C 164.27 416.71 149.94 434.40 155.01 448.99 C 160.09 463.58 170.46 471.28 176.00 486.00
M 183.00 429.00 
C 192.81 434.62 193.93 451.91 180.92 454.92 C 167.92 457.94 160.36 439.65 169.00 431.00
C 173.71 430.55 178.33 429.71 183.00 429.00 Z"/>
</g>
<g fill="None" fill-opacity="0.0" stroke="#4C4C4C" stroke-opacity="1.00" stroke-width="0.3"><path d="
M 889.00 424.00 
C 877.34 427.50 865.18 428.78 853.00 430.00
C 849.88 433.79 837.86 445.39 851.00 442.00
C 843.76 455.84 834.06 458.52 824.92 471.92 C 815.79 485.32 837.78 502.13 847.25 489.25 C 856.71 476.36 865.77 472.46 875.00 462.00
C 869.33 475.71 884.64 467.53 886.00 458.00 C 887.36 448.47 889.76 434.45 889.00 424.00
M 883.00 431.00 
C 887.15 442.98 873.08 439.83 873.00 432.00
C 876.46 432.21 879.39 430.30 883.00 431.00
M 842.00 489.00 
C 831.37 491.41 824.59 480.29 831.25 473.25 C 837.91 466.21 842.85 461.70 848.70 455.70 C 854.55 449.70 859.62 442.42 864.00 436.00
C 870.21 436.14 883.49 446.04 877.25 452.25 C 871.00 458.45 864.93 463.49 859.25 470.25 C 853.56 477.01 846.42 482.00 842.00 489.00 Z"/>
</g>
<g fill="None" fill-opacity="0.0" stroke="#4B4B4B" stroke-opacity="1.00" stroke-width="0.3"><path d="
M 183.00 429.00 
C 178.33 429.71 173.71 430.55 169.00 431.00
C 160.36 439.65 167.92 457.94 180.92 454.92 C 193.93 451.91 192.81 434.62 183.00 429.00
M 181.00 434.00 
C 191.21 436.45 186.32 453.18 176.00 450.00 C 165.68 446.82 170.22 431.41 181.00 434.00 Z"/>
</g>
<g fill="None" fill-opacity="0.0" stroke="#131311" stroke-opacity="1.00" stroke-width="0.3"><path d="
M 883.00 431.00 
C 879.39 430.30 876.46 432.21 873.00 432.00
C 873.08 439.83 887.15 442.98 883.00 431.00 Z"/>
</g>
<g fill="None" fill-opacity="0.0" stroke="#131311" stroke-opacity="1.00" stroke-width="0.3"><path d="
M 181.00 434.00 
C 170.22 431.41 165.68 446.82 176.00 450.00 C 186.32 453.18 191.21 436.45 181.00 434.00 Z"/>
</g>
<g fill="None" fill-opacity="0.0" stroke="#131311" stroke-opacity="1.00" stroke-width="0.3"><path d="
M 842.00 489.00 
C 846.42 482.00 853.56 477.01 859.25 470.25 C 864.93 463.49 871.00 458.45 877.25 452.25 C 883.49 446.04 870.21 436.14 864.00 436.00
C 859.62 442.42 854.55 449.70 848.70 455.70 C 842.85 461.70 837.91 466.21 831.25 473.25 C 824.59 480.29 831.37 491.41 842.00 489.00 Z"/>
</g>
<g fill="None" fill-opacity="0.0" stroke="#4D4D4D" stroke-opacity="1.00" stroke-width="0.3"><path d="
M 345.00 595.00 
C 336.21 590.91 322.77 586.63 314.08 592.08 C 305.39 597.54 300.71 605.54 301.00 616.00 C 301.29 626.46 307.94 632.00 315.92 638.08 C 323.91 644.15 339.75 634.28 345.75 637.25 C 351.75 640.21 360.47 656.34 367.22 645.22 C 373.97 634.10 356.22 631.99 353.10 623.90 C 349.98 615.80 351.41 602.69 345.00 595.00
M 309.00 606.00 
C 311.34 604.51 313.92 603.38 313.00 600.00
C 323.11 593.31 339.33 595.08 343.92 608.08 C 348.52 621.07 338.45 634.73 325.00 634.00 C 311.54 633.27 303.60 618.07 309.00 606.00 Z"/>
</g>
<g fill="None" fill-opacity="0.0" stroke="#131311" stroke-opacity="1.00" stroke-width="0.3"><path d="
M 309.00 606.00 
C 303.60 618.07 311.54 633.27 325.00 634.00 C 338.45 634.73 348.52 621.07 343.92 608.08 C 339.33 595.08 323.11 593.31 313.00 600.00
C 313.92 603.38 311.34 604.51 309.00 606.00 Z"/>
</g>
<g fill="None" fill-opacity="0.0" stroke="#4C4C4C" stroke-opacity="1.00" stroke-width="0.3"><path d="
M 554.00 603.00 
C 548.54 606.40 533.83 603.79 535.00 613.00 C 536.17 622.21 528.31 624.33 523.75 630.75 C 519.19 637.18 513.16 638.02 509.75 645.75 C 506.34 653.48 497.33 649.79 492.25 654.25 C 487.16 658.71 481.07 663.17 479.00 670.00 C 476.93 676.83 489.06 684.13 494.25 678.25 C 499.43 672.37 502.44 669.01 508.00 664.00
C 502.54 653.68 515.31 646.46 521.75 638.75 C 528.20 631.04 537.63 619.71 549.00 623.00
C 551.32 616.54 554.12 610.15 554.00 603.00
M 503.00 664.00 
C 500.11 665.08 499.30 668.41 496.00 668.00
C 493.89 664.11 488.69 661.84 493.32 657.32 C 497.95 652.80 502.26 659.93 503.00 664.00
M 483.00 668.00 
C 485.77 668.92 486.90 665.81 489.00 665.00
C 493.79 667.55 495.18 672.33 491.23 676.23 C 487.28 680.13 482.24 672.19 483.00 668.00 Z"/>
</g>
<g fill="None" fill-opacity="0.0" stroke="#4B4B4B" stroke-opacity="1.00" stroke-width="0.3"><path d="
M 737.00 631.00 
C 728.86 626.67 721.06 625.71 712.00 624.00 C 702.94 622.29 694.47 620.45 685.07 618.93 C 675.68 617.40 666.42 613.06 664.77 624.77 C 663.12 636.48 662.93 640.32 659.33 651.33 C 655.73 662.34 657.70 667.81 668.77 668.23 C 679.84 668.64 684.57 674.28 694.99 674.01 C 705.41 673.74 711.73 679.63 722.00 679.00 C 732.27 678.36 729.06 664.57 732.07 657.07 C 735.09 649.57 734.88 638.94 737.00 631.00
M 728.00 633.00 
C 721.24 639.46 715.07 639.35 707.75 645.75 C 700.44 652.16 692.06 651.02 687.75 642.25 C 683.43 633.49 676.36 631.25 673.00 623.00
C 691.04 624.51 710.41 628.61 728.00 633.00
M 683.00 648.00 
C 675.85 648.80 671.13 655.27 664.00 656.00
C 663.55 647.91 667.06 644.63 667.33 636.33 C 667.60 628.02 671.51 625.33 674.75 633.25 C 678.00 641.16 683.20 639.51 683.00 648.00
M 731.00 640.00 
C 727.38 648.60 728.21 658.96 724.00 667.00
C 720.67 663.71 709.52 654.73 711.94 649.92 C 714.35 645.11 727.09 640.86 731.00 640.00
M 689.00 650.00 
C 691.09 658.41 700.55 655.75 706.00 653.00
C 711.14 659.49 716.75 665.54 720.00 673.00
C 702.70 672.41 684.64 666.38 667.00 664.00
C 671.58 655.99 681.91 653.38 689.00 650.00 Z"/>
</g>
<g fill="None" fill-opacity="0.0" stroke="#131311" stroke-opacity="1.00" stroke-width="0.3"><path d="
M 728.00 633.00 
C 710.41 628.61 691.04 624.51 673.00 623.00
C 676.36 631.25 683.43 633.49 687.75 642.25 C 692.06 651.02 700.44 652.16 707.75 645.75 C 715.07 639.35 721.24 639.46 728.00 633.00 Z"/>
</g>
<g fill="None" fill-opacity="0.0" stroke="#131311" stroke-opacity="1.00" stroke-width="0.3"><path d="
M 683.00 648.00 
C 683.20 639.51 678.00 641.16 674.75 633.25 C 671.51 625.33 667.60 628.02 667.33 636.33 C 667.06 644.63 663.55 647.91 664.00 656.00
C 671.13 655.27 675.85 648.80 683.00 648.00 Z"/>
</g>
<g fill="None" fill-opacity="0.0" stroke="#131311" stroke-opacity="1.00" stroke-width="0.3"><path d="
M 731.00 640.00 
C 727.09 640.86 714.35 645.11 711.94 649.92 C 709.52 654.73 720.67 663.71 724.00 667.00
C 728.21 658.96 727.38 648.60 731.00 640.00 Z"/>
</g>
<g fill="None" fill-opacity="0.0" stroke="#131311" stroke-opacity="1.00" stroke-width="0.3"><path d="
M 689.00 650.00 
C 681.91 653.38 671.58 655.99 667.00 664.00
C 684.64 666.38 702.70 672.41 720.00 673.00
C 716.75 665.54 711.14 659.49 706.00 653.00
C 700.55 655.75 691.09 658.41 689.00 650.00 Z"/>
</g>
<g fill="None" fill-opacity="0.0" stroke="#131311" stroke-opacity="1.00" stroke-width="0.3"><path d="
M 503.00 664.00 
C 502.26 659.93 497.95 652.80 493.32 657.32 C 488.69 661.84 493.89 664.11 496.00 668.00
C 499.30 668.41 500.11 665.08 503.00 664.00 Z"/>
</g>
<g fill="None" fill-opacity="0.0" stroke="#131311" stroke-opacity="1.00" stroke-width="0.3"><path d="
M 483.00 668.00 
C 482.24 672.19 487.28 680.13 491.23 676.23 C 495.18 672.33 493.79 667.55 489.00 665.00
C 486.90 665.81 485.77 668.92 483.00 668.00 Z"/>
</g>
<g fill="#131311" fill-opacity="1.00" stroke="None">
<path d="
M 0.00 768.00 
L 1024.00 768.00
L 1024.00 0.00
L 0.00 0.00
L 0.00 768.00
M 385.00 131.00 
C 385.37 139.20 376.54 144.45 378.00 152.00
C 373.18 152.29 363.90 161.55 359.70 154.30 C 355.51 147.04 353.67 145.26 355.01 136.99 C 356.35 128.72 353.91 122.99 346.77 119.23 C 339.63 115.47 340.56 107.73 337.01 101.99 C 333.46 96.25 333.63 87.54 335.78 80.78 C 337.92 74.01 338.82 67.70 343.75 62.75 C 348.69 57.80 352.20 53.21 359.03 51.03 C 365.85 48.84 373.36 46.43 380.67 47.33 C 387.98 48.23 393.53 50.36 399.69 54.31 C 405.86 58.25 407.90 63.78 411.92 69.08 C 415.94 74.38 417.60 82.74 417.00 90.00 C 416.40 97.26 415.96 104.78 411.69 110.69 C 407.43 116.61 405.33 121.03 398.32 124.32 C 391.31 127.61 397.36 135.46 400.90 139.10 C 404.44 142.74 409.47 149.71 413.25 152.75 C 417.02 155.80 432.67 157.32 429.67 162.67 C 426.66 168.03 416.41 158.28 411.92 157.08 C 407.44 155.87 402.78 147.78 398.25 144.75 C 393.71 141.73 391.93 131.67 385.99 131.01
M 671.00 60.00 
C 682.16 62.31 690.48 72.27 692.00 84.00 C 693.51 95.73 688.71 107.10 687.00 120.00 C 685.29 132.90 678.40 140.66 677.23 155.23 C 676.06 169.80 657.49 162.98 646.78 160.22 C 636.07 157.47 615.23 157.57 620.11 144.11 C 624.98 130.65 625.29 119.98 629.00 108.00 C 632.70 96.01 632.33 83.23 638.92 72.92 C 645.52 62.62 659.44 57.61 671.00 60.00
M 821.00 186.00 
C 822.28 192.15 818.11 203.72 822.26 208.74 C 826.40 213.77 835.69 212.27 837.00 220.00
C 830.15 222.43 824.29 226.16 817.00 228.00
C 816.53 235.65 813.96 241.75 810.00 248.00
C 805.22 244.45 802.71 235.48 797.92 232.08 C 793.13 228.69 775.95 233.62 776.79 226.77 C 777.62 219.92 788.84 218.33 789.00 211.00
C 784.53 206.10 785.12 198.43 784.00 192.00
C 790.86 189.35 798.44 200.38 804.67 197.67 C 810.90 194.96 812.76 186.67 821.00 186.00
M 200.00 192.00 
C 201.37 197.59 201.33 203.25 198.00 208.00
C 187.70 208.17 178.30 211.76 168.00 212.00
C 168.83 221.51 154.99 228.61 149.08 218.92 C 143.18 209.22 154.28 200.04 165.00 204.00
C 167.03 211.85 173.57 205.52 179.00 206.00 C 184.44 206.49 191.65 204.87 197.00 204.00
C 197.83 200.77 197.78 198.27 197.00 195.00
C 191.55 193.41 188.07 196.88 184.00 199.00
C 179.91 189.73 194.80 188.46 200.00 192.00
M 506.00 264.00 
C 534.75 268.11 538.05 302.40 538.00 326.00 C 537.95 349.60 526.82 382.62 497.33 378.67 C 467.84 374.72 465.07 340.49 465.00 317.00 C 464.93 293.51 476.20 259.74 506.00 264.00
M 421.00 351.00 
C 414.60 349.87 405.08 352.51 399.00 351.00 C 392.92 349.49 381.25 354.25 377.00 350.00
C 369.82 342.82 380.03 329.89 384.25 323.25 C 388.48 316.62 394.47 308.50 398.77 300.77 C 403.07 293.04 408.90 287.03 413.30 278.30 C 417.71 269.58 425.94 261.75 438.00 266.00
C 438.00 289.33 438.00 312.67 438.00 336.00
C 443.00 336.00 448.00 336.00 453.00 336.00
C 451.86 339.79 455.80 350.63 449.97 350.97 C 444.14 351.31 437.06 349.45 438.00 357.00 C 438.94 364.56 437.29 368.75 438.00 376.00
C 432.33 376.00 426.67 376.00 421.00 376.00
C 421.00 367.67 421.00 359.33 421.00 351.00
M 595.00 351.00 
C 588.84 349.83 577.65 352.56 572.00 351.00 C 566.35 349.44 553.12 354.46 550.00 350.00
C 545.33 343.33 552.42 332.33 555.92 326.92 C 559.42 321.50 563.95 315.39 567.25 309.25 C 570.56 303.12 575.58 298.59 578.77 291.77 C 581.96 284.95 586.43 281.52 589.77 273.77 C 593.11 266.02 603.26 264.16 612.00 266.00
C 612.00 289.33 612.00 312.67 612.00 336.00
C 617.00 336.00 622.00 336.00 627.00 336.00
C 627.00 341.00 627.00 346.00 627.00 351.00
C 622.00 351.00 617.00 351.00 612.00 351.00
C 612.00 359.33 612.00 367.67 612.00 376.00
C 606.33 376.00 600.67 376.00 595.00 376.00
C 595.00 367.67 595.00 359.33 595.00 351.00
M 186.00 414.00 
C 196.91 416.26 204.22 427.49 206.98 438.02 C 209.73 448.56 199.47 463.94 194.68 470.68 C 189.89 477.43 181.60 498.69 174.08 489.92 C 166.57 481.15 164.08 470.97 156.70 462.30 C 149.32 453.64 147.17 437.91 153.32 427.32 C 159.47 416.73 173.56 411.42 186.00 414.00
M 889.00 424.00 
C 889.76 434.45 887.36 448.47 886.00 458.00 C 884.64 467.53 869.33 475.71 875.00 462.00
C 865.77 472.46 856.71 476.36 847.25 489.25 C 837.78 502.13 815.79 485.32 824.92 471.92 C 834.06 458.52 843.76 455.84 851.00 442.00
C 837.86 445.39 849.88 433.79 853.00 430.00
C 865.18 428.78 877.34 427.50 889.00 424.00
M 345.00 595.00 
C 351.41 602.69 349.98 615.80 353.10 623.90 C 356.22 631.99 373.97 634.10 367.22 645.22 C 360.47 656.34 351.75 640.21 345.75 637.25 C 339.75 634.28 323.91 644.15 315.92 638.08 C 307.94 632.00 301.29 626.46 301.00 616.00 C 300.71 605.54 305.39 597.54 314.08 592.08 C 322.77 586.63 336.21 590.91 345.00 595.00
M 554.00 603.00 
C 554.12 610.15 551.32 616.54 549.00 623.00
C 537.63 619.71 528.20 631.04 521.75 638.75 C 515.31 646.46 502.54 653.68 508.00 664.00
C 502.44 669.01 499.43 672.37 494.25 678.25 C 489.06 684.13 476.93 676.83 479.00 670.00 C 481.07 663.17 487.16 658.71 492.25 654.25 C 497.33 649.79 506.34 653.48 509.75 645.75 C 513.16 638.02 519.19 637.18 523.75 630.75 C 528.31 624.33 536.17 622.21 535.00 613.00 C 533.83 603.79 548.54 606.40 554.00 603.00
M 737.00 631.00 
C 734.88 638.94 735.09 649.57 732.07 657.07 C 729.06 664.57 732.27 678.36 722.00 679.00 C 711.73 679.63 705.41 673.74 694.99 674.01 C 684.57 674.28 679.84 668.64 668.77 668.23 C 657.70 667.81 655.73 662.34 659.33 651.33 C 662.93 640.32 663.12 636.48 664.77 624.77 C 666.42 613.06 675.68 617.40 685.07 618.93 C 694.47 620.45 702.94 622.29 712.00 624.00 C 721.06 625.71 728.86 626.67 737.00 631.00 Z"/>
</g>
<g fill="#4D4D4D" fill-opacity="1.00" stroke="None">
<path d="
M 385.99 131.01 
C 391.93 131.67 393.71 141.73 398.25 144.75 C 402.78 147.78 407.44 155.87 411.92 157.08 C 416.41 158.28 426.66 168.03 429.67 162.67 C 432.67 157.32 417.02 155.80 413.25 152.75 C 409.47 149.71 404.44 142.74 400.90 139.10 C 397.36 135.46 391.31 127.61 398.32 124.32 C 405.33 121.03 407.43 116.61 411.69 110.69 C 415.96 104.78 416.40 97.26 417.00 90.00 C 417.60 82.74 415.94 74.38 411.92 69.08 C 407.90 63.78 405.86 58.25 399.69 54.31 C 393.53 50.36 387.98 48.23 380.67 47.33 C 373.36 46.43 365.85 48.84 359.03 51.03 C 352.20 53.21 348.69 57.80 343.75 62.75 C 338.82 67.70 337.92 74.01 335.78 80.78 C 333.63 87.54 333.46 96.25 337.01 101.99 C 340.56 107.73 339.63 115.47 346.77 119.23 C 353.91 122.99 356.35 128.72 355.01 136.99 C 353.67 145.26 355.51 147.04 359.70 154.30 C 363.90 161.55 373.18 152.29 378.00 152.00
C 376.54 144.45 385.37 139.20 385.00 131.00
M 378.00 138.00 
C 365.83 141.71 359.37 135.14 360.00 125.00 C 360.63 114.86 348.83 116.73 345.23 108.77 C 341.63 100.81 339.41 92.75 340.98 83.98 C 342.54 75.20 344.56 69.27 350.75 62.75 C 356.95 56.24 364.52 54.93 373.00 54.00 C 381.48 53.07 391.49 55.04 397.75 60.25 C 404.00 65.47 407.93 71.44 410.31 78.69 C 412.68 85.95 411.28 99.47 407.69 105.69 C 404.11 111.92 399.91 118.81 392.75 121.75 C 385.60 124.70 378.06 127.96 378.00 138.00 Z"/>
</g>
<g fill="#131311" fill-opacity="1.00" stroke="None">
<path d="
M 378.00 138.00 
C 378.06 127.96 385.60 124.70 392.75 121.75 C 399.91 118.81 404.11 111.92 407.69 105.69 C 411.28 99.47 412.68 85.95 410.31 78.69 C 407.93 71.44 404.00 65.47 397.75 60.25 C 391.49 55.04 381.48 53.07 373.00 54.00 C 364.52 54.93 356.95 56.24 350.75 62.75 C 344.56 69.27 342.54 75.20 340.98 83.98 C 339.41 92.75 341.63 100.81 345.23 108.77 C 348.83 116.73 360.63 114.86 360.00 125.00 C 359.37 135.14 365.83 141.71 378.00 138.00 Z"/>
</g>
<g fill="#4C4C4C" fill-opacity="1.00" stroke="None">
<path d="
M 671.00 60.00 
C 659.44 57.61 645.52 62.62 638.92 72.92 C 632.33 83.23 632.70 96.01 629.00 108.00 C 625.29 119.98 624.98 130.65 620.11 144.11 C 615.23 157.57 636.07 157.47 646.78 160.22 C 657.49 162.98 676.06 169.80 677.23 155.23 C 678.40 140.66 685.29 132.90 687.00 120.00 C 688.71 107.10 693.51 95.73 692.00 84.00 C 690.48 72.27 682.16 62.31 671.00 60.00
M 670.00 159.00 
C 656.77 155.62 647.79 154.95 634.00 152.00 C 620.21 149.05 631.13 131.44 632.77 120.77 C 634.41 110.11 638.73 95.70 640.93 84.93 C 643.13 74.15 653.85 64.54 665.00 66.00 C 676.16 67.46 686.74 75.89 687.00 88.00 C 687.26 100.12 680.67 112.12 679.07 124.07 C 677.47 136.03 673.68 147.65 670.00 159.00 Z"/>
</g>
<g fill="#131311" fill-opacity="1.00" stroke="None">
<path d="
M 670.00 159.00 
C 673.68 147.65 677.47 136.03 679.07 124.07 C 680.67 112.12 687.26 100.12 687.00 88.00 C 686.74 75.89 676.16 67.46 665.00 66.00 C 653.85 64.54 643.13 74.15 640.93 84.93 C 638.73 95.70 634.41 110.11 632.77 120.77 C 631.13 131.44 620.21 149.05 634.00 152.00 C 647.79 154.95 656.77 155.62 670.00 159.00 Z"/>
</g>
<g fill="#4B4B4B" fill-opacity="1.00" stroke="None">
<path d="
M 821.00 186.00 
C 812.76 186.67 810.90 194.96 804.67 197.67 C 798.44 200.38 790.86 189.35 784.00 192.00
C 785.12 198.43 784.53 206.10 789.00 211.00
C 788.84 218.33 777.62 219.92 776.79 226.77 C 775.95 233.62 793.13 228.69 797.92 232.08 C 802.71 235.48 805.22 244.45 810.00 248.00
C 813.96 241.75 816.53 235.65 817.00 228.00
C 824.29 226.16 830.15 222.43 837.00 220.00
C 835.69 212.27 826.40 213.77 822.26 208.74 C 818.11 203.72 822.28 192.15 821.00 186.00
M 817.00 193.00 
C 817.52 198.48 815.75 205.90 818.31 210.69 C 820.87 215.49 829.12 213.39 828.00 220.00
C 814.79 219.48 812.78 230.49 809.00 240.00
C 804.88 237.04 805.02 233.21 802.08 228.92 C 799.13 224.64 789.60 228.14 785.00 227.00
C 784.69 217.78 797.59 216.51 791.02 205.98 C 784.46 195.44 798.87 199.99 805.00 203.00
C 808.04 198.59 813.09 196.44 817.00 193.00 Z"/>
</g>
<g fill="#4B4B4B" fill-opacity="1.00" stroke="None">
<path d="
M 200.00 192.00 
C 194.80 188.46 179.91 189.73 184.00 199.00
C 188.07 196.88 191.55 193.41 197.00 195.00
C 197.78 198.27 197.83 200.77 197.00 204.00
C 191.65 204.87 184.44 206.49 179.00 206.00 C 173.57 205.52 167.03 211.85 165.00 204.00
C 154.28 200.04 143.18 209.22 149.08 218.92 C 154.99 228.61 168.83 221.51 168.00 212.00
C 178.30 211.76 187.70 208.17 198.00 208.00
C 201.33 203.25 201.37 197.59 200.00 192.00
M 161.00 206.00 
C 166.22 210.74 163.62 221.74 155.33 218.67 C 147.04 215.60 153.80 203.87 161.00 206.00 Z"/>
</g>
<g fill="#131311" fill-opacity="1.00" stroke="None">
<path d="
M 817.00 193.00 
C 813.09 196.44 808.04 198.59 805.00 203.00
C 798.87 199.99 784.46 195.44 791.02 205.98 C 797.59 216.51 784.69 217.78 785.00 227.00
C 789.60 228.14 799.13 224.64 802.08 228.92 C 805.02 233.21 804.88 237.04 809.00 240.00
C 812.78 230.49 814.79 219.48 828.00 220.00
C 829.12 213.39 820.87 215.49 818.31 210.69 C 815.75 205.90 817.52 198.48 817.00 193.00 Z"/>
</g>
<g fill="#131311" fill-opacity="1.00" stroke="None">
<path d="
M 161.00 206.00 
C 153.80 203.87 147.04 215.60 155.33 218.67 C 163.62 221.74 166.22 210.74 161.00 206.00 Z"/>
</g>
<g fill="#F5F5F5" fill-opacity="1.00" stroke="None">
<path d="
M 506.00 264.00 
C 476.20 259.74 464.93 293.51 465.00 317.00 C 465.07 340.49 467.84 374.72 497.33 378.67 C 526.82 382.62 537.95 349.60 538.00 326.00 C 538.05 302.40 534.75 268.11 506.00 264.00
M 506.00 279.00 
C 517.02 282.35 516.76 296.39 519.00 306.00 C 521.24 315.61 518.76 333.94 518.02 344.02 C 517.28 354.11 509.33 368.16 497.33 363.67 C 485.33 359.18 486.56 347.55 484.01 336.99 C 481.46 326.44 483.89 309.40 485.00 299.00 C 486.11 288.60 493.33 275.16 506.00 279.00 Z"/>
</g>
<g fill="#F6F6F6" fill-opacity="1.00" stroke="None">
<path d="
M 377.00 350.00 
C 381.65 353.26 393.91 347.56 399.00 350.00 C 404.09 352.44 417.71 346.29 421.00 351.00
C 421.00 359.33 421.00 367.67 421.00 376.00
C 426.67 376.00 432.33 376.00 438.00 376.00
C 437.29 368.75 438.94 364.56 438.00 357.00 C 437.06 349.45 444.14 351.31 449.97 350.97 C 455.80 350.63 451.86 339.79 453.00 336.00
C 448.00 336.00 443.00 336.00 438.00 336.00
C 438.00 312.67 438.00 289.33 438.00 266.00
C 425.94 261.75 417.71 269.58 413.30 278.30 C 408.90 287.03 403.07 293.04 398.77 300.77 C 394.47 308.50 388.48 316.62 384.25 323.25 C 380.03 329.89 369.82 342.82 377.00 350.00
M 421.00 336.00 
C 416.41 336.41 410.52 336.09 406.00 336.00 C 401.48 335.91 393.95 337.45 394.00 334.00
C 394.09 327.76 403.72 318.47 406.77 312.77 C 409.82 307.07 415.08 296.30 420.00 292.00
C 420.41 291.64 420.08 289.02 422.00 290.00
C 421.33 305.17 423.33 321.66 421.00 336.00 Z"/>
</g>
<g fill="#F5F5F5" fill-opacity="1.00" stroke="None">
<path d="
M 550.00 350.00 
C 556.16 351.17 567.35 348.44 573.00 350.00 C 578.65 351.56 591.88 346.54 595.00 351.00
C 595.00 359.33 595.00 367.67 595.00 376.00
C 600.67 376.00 606.33 376.00 612.00 376.00
C 612.00 367.67 612.00 359.33 612.00 351.00
C 617.00 351.00 622.00 351.00 627.00 351.00
C 627.00 346.00 627.00 341.00 627.00 336.00
C 622.00 336.00 617.00 336.00 612.00 336.00
C 612.00 312.67 612.00 289.33 612.00 266.00
C 603.26 264.16 593.11 266.02 589.77 273.77 C 586.43 281.52 581.96 284.95 578.77 291.77 C 575.58 298.59 570.56 303.12 567.25 309.25 C 563.95 315.39 559.42 321.50 555.92 326.92 C 552.42 332.33 545.33 343.33 550.00 350.00
M 595.00 291.00 
C 595.00 306.00 595.00 321.00 595.00 336.00
C 585.67 336.00 576.33 336.00 567.00 336.00
C 575.04 320.52 585.35 305.40 595.00 291.00 Z"/>
</g>
<g fill="#161616" fill-opacity="1.00" stroke="None">
<path d="
M 506.00 279.00 
C 493.33 275.16 486.11 288.60 485.00 299.00 C 483.89 309.40 481.46 326.44 484.01 336.99 C 486.56 347.55 485.33 359.18 497.33 363.67 C 509.33 368.16 517.28 354.11 518.02 344.02 C 518.76 333.94 521.24 315.61 519.00 306.00 C 516.76 296.39 517.02 282.35 506.00 279.00 Z"/>
</g>
<g fill="#8F8F8F" fill-opacity="1.00" stroke="None">
<path d="
M 420.00 292.00 
C 419.08 297.73 421.87 306.19 421.00 313.00 C 420.13 319.81 421.00 328.06 421.00 335.00
C 421.00 335.50 421.00 336.00 421.00 336.00
C 423.33 321.66 421.33 305.17 422.00 290.00
C 420.08 289.02 420.41 291.64 420.00 292.00 Z"/>
</g>
<g fill="#1A1B1A" fill-opacity="1.00" stroke="None">
<path d="
M 595.00 291.00 
C 585.35 305.40 575.04 320.52 567.00 336.00
C 576.33 336.00 585.67 336.00 595.00 336.00
C 595.00 321.00 595.00 306.00 595.00 291.00 Z"/>
</g>
<g fill="#181818" fill-opacity="1.00" stroke="None">
<path d="
M 394.00 334.00 
C 395.73 336.97 403.54 334.30 407.00 335.00 C 410.46 335.70 417.22 334.66 421.00 335.00
C 421.00 328.06 420.13 319.81 421.00 313.00 C 421.87 306.19 419.08 297.73 420.00 292.00
C 415.08 296.30 409.82 307.07 406.77 312.77 C 403.72 318.47 394.09 327.76 394.00 334.00 Z"/>
</g>
<g fill="#494A4A" fill-opacity="1.00" stroke="None">
<path d="
M 421.00 336.00 
C 421.00 336.00 421.00 335.50 421.00 335.00
C 417.22 334.66 410.46 335.70 407.00 335.00 C 403.54 334.30 395.73 336.97 394.00 334.00
C 393.95 337.45 401.48 335.91 406.00 336.00 C 410.52 336.09 416.41 336.41 421.00 336.00 Z"/>
</g>
<g fill="#7C7C7C" fill-opacity="1.00" stroke="None">
<path d="
M 421.00 351.00 
C 417.71 346.29 404.09 352.44 399.00 350.00 C 393.91 347.56 381.65 353.26 377.00 350.00
C 381.25 354.25 392.92 349.49 399.00 351.00 C 405.08 352.51 414.60 349.87 421.00 351.00 Z"/>
</g>
<g fill="#7F7F7F" fill-opacity="1.00" stroke="None">
<path d="
M 595.00 351.00 
C 591.88 346.54 578.65 351.56 573.00 350.00 C 567.35 348.44 556.16 351.17 550.00 350.00
C 553.12 354.46 566.35 349.44 572.00 351.00 C 577.65 352.56 588.84 349.83 595.00 351.00 Z"/>
</g>
<g fill="#4C4C4C" fill-opacity="1.00" stroke="None">
<path d="
M 186.00 414.00 
C 173.56 411.42 159.47 416.73 153.32 427.32 C 147.17 437.91 149.32 453.64 156.70 462.30 C 164.08 470.97 166.57 481.15 174.08 489.92 C 181.60 498.69 189.89 477.43 194.68 470.68 C 199.47 463.94 209.73 448.56 206.98 438.02 C 204.22 427.49 196.91 416.26 186.00 414.00
M 176.00 486.00 
C 170.46 471.28 160.09 463.58 155.01 448.99 C 149.94 434.40 164.27 416.71 180.00 418.00 C 195.73 419.29 207.47 438.41 200.07 452.07 C 192.67 465.74 188.09 476.73 176.00 486.00 Z"/>
</g>
<g fill="#131311" fill-opacity="1.00" stroke="None">
<path d="
M 176.00 486.00 
C 188.09 476.73 192.67 465.74 200.07 452.07 C 207.47 438.41 195.73 419.29 180.00 418.00 C 164.27 416.71 149.94 434.40 155.01 448.99 C 160.09 463.58 170.46 471.28 176.00 486.00
M 183.00 429.00 
C 192.81 434.62 193.93 451.91 180.92 454.92 C 167.92 457.94 160.36 439.65 169.00 431.00
C 173.71 430.55 178.33 429.71 183.00 429.00 Z"/>
</g>
<g fill="#4C4C4C" fill-opacity="1.00" stroke="None">
<path d="
M 889.00 424.00 
C 877.34 427.50 865.18 428.78 853.00 430.00
C 849.88 433.79 837.86 445.39 851.00 442.00
C 843.76 455.84 834.06 458.52 824.92 471.92 C 815.79 485.32 837.78 502.13 847.25 489.25 C 856.71 476.36 865.77 472.46 875.00 462.00
C 869.33 475.71 884.64 467.53 886.00 458.00 C 887.36 448.47 889.76 434.45 889.00 424.00
M 883.00 431.00 
C 887.15 442.98 873.08 439.83 873.00 432.00
C 876.46 432.21 879.39 430.30 883.00 431.00
M 842.00 489.00 
C 831.37 491.41 824.59 480.29 831.25 473.25 C 837.91 466.21 842.85 461.70 848.70 455.70 C 854.55 449.70 859.62 442.42 864.00 436.00
C 870.21 436.14 883.49 446.04 877.25 452.25 C 871.00 458.45 864.93 463.49 859.25 470.25 C 853.56 477.01 846.42 482.00 842.00 489.00 Z"/>
</g>
<g fill="#4B4B4B" fill-opacity="1.00" stroke="None">
<path d="
M 183.00 429.00 
C 178.33 429.71 173.71 430.55 169.00 431.00
C 160.36 439.65 167.92 457.94 180.92 454.92 C 193.93 451.91 192.81 434.62 183.00 429.00
M 181.00 434.00 
C 191.21 436.45 186.32 453.18 176.00 450.00 C 165.68 446.82 170.22 431.41 181.00 434.00 Z"/>
</g>
<g fill="#131311" fill-opacity="1.00" stroke="None">
<path d="
M 883.00 431.00 
C 879.39 430.30 876.46 432.21 873.00 432.00
C 873.08 439.83 887.15 442.98 883.00 431.00 Z"/>
</g>
<g fill="#131311" fill-opacity="1.00" stroke="None">
<path d="
M 181.00 434.00 
C 170.22 431.41 165.68 446.82 176.00 450.00 C 186.32 453.18 191.21 436.45 181.00 434.00 Z"/>
</g>
<g fill="#131311" fill-opacity="1.00" stroke="None">
<path d="
M 842.00 489.00 
C 846.42 482.00 853.56 477.01 859.25 470.25 C 864.93 463.49 871.00 458.45 877.25 452.25 C 883.49 446.04 870.21 436.14 864.00 436.00
C 859.62 442.42 854.55 449.70 848.70 455.70 C 842.85 461.70 837.91 466.21 831.25 473.25 C 824.59 480.29 831.37 491.41 842.00 489.00 Z"/>
</g>
<g fill="#4D4D4D" fill-opacity="1.00" stroke="None">
<path d="
M 345.00 595.00 
C 336.21 590.91 322.77 586.63 314.08 592.08 C 305.39 597.54 300.71 605.54 301.00 616.00 C 301.29 626.46 307.94 632.00 315.92 638.08 C 323.91 644.15 339.75 634.28 345.75 637.25 C 351.75 640.21 360.47 656.34 367.22 645.22 C 373.97 634.10 356.22 631.99 353.10 623.90 C 349.98 615.80 351.41 602.69 345.00 595.00
M 309.00 606.00 
C 311.34 604.51 313.92 603.38 313.00 600.00
C 323.11 593.31 339.33 595.08 343.92 608.08 C 348.52 621.07 338.45 634.73 325.00 634.00 C 311.54 633.27 303.60 618.07 309.00 606.00 Z"/>
</g>
<g fill="#131311" fill-opacity="1.00" stroke="None">
<path d="
M 309.00 606.00 
C 303.60 618.07 311.54 633.27 325.00 634.00 C 338.45 634.73 348.52 621.07 343.92 608.08 C 339.33 595.08 323.11 593.31 313.00 600.00
C 313.92 603.38 311.34 604.51 309.00 606.00 Z"/>
</g>
<g fill="#4C4C4C" fill-opacity="1.00" stroke="None">
<path d="
M 554.00 603.00 
C 548.54 606.40 533.83 603.79 535.00 613.00 C 536.17 622.21 528.31 624.33 523.75 630.75 C 519.19 637.18 513.16 638.02 509.75 645.75 C 506.34 653.48 497.33 649.79 492.25 654.25 C 487.16 658.71 481.07 663.17 479.00 670.00 C 476.93 676.83 489.06 684.13 494.25 678.25 C 499.43 672.37 502.44 669.01 508.00 664.00
C 502.54 653.68 515.31 646.46 521.75 638.75 C 528.20 631.04 537.63 619.71 549.00 623.00
C 551.32 616.54 554.12 610.15 554.00 603.00
M 503.00 664.00 
C 500.11 665.08 499.30 668.41 496.00 668.00
C 493.89 664.11 488.69 661.84 493.32 657.32 C 497.95 652.80 502.26 659.93 503.00 664.00
M 483.00 668.00 
C 485.77 668.92 486.90 665.81 489.00 665.00
C 493.79 667.55 495.18 672.33 491.23 676.23 C 487.28 680.13 482.24 672.19 483.00 668.00 Z"/>
</g>
<g fill="#4B4B4B" fill-opacity="1.00" stroke="None">
<path d="
M 737.00 631.00 
C 728.86 626.67 721.06 625.71 712.00 624.00 C 702.94 622.29 694.47 620.45 685.07 618.93 C 675.68 617.40 666.42 613.06 664.77 624.77 C 663.12 636.48 662.93 640.32 659.33 651.33 C 655.73 662.34 657.70 667.81 668.77 668.23 C 679.84 668.64 684.57 674.28 694.99 674.01 C 705.41 673.74 711.73 679.63 722.00 679.00 C 732.27 678.36 729.06 664.57 732.07 657.07 C 735.09 649.57 734.88 638.94 737.00 631.00
M 728.00 633.00 
C 721.24 639.46 715.07 639.35 707.75 645.75 C 700.44 652.16 692.06 651.02 687.75 642.25 C 683.43 633.49 676.36 631.25 673.00 623.00
C 691.04 624.51 710.41 628.61 728.00 633.00
M 683.00 648.00 
C 675.85 648.80 671.13 655.27 664.00 656.00
C 663.55 647.91 667.06 644.63 667.33 636.33 C 667.60 628.02 671.51 625.33 674.75 633.25 C 678.00 641.16 683.20 639.51 683.00 648.00
M 731.00 640.00 
C 727.38 648.60 728.21 658.96 724.00 667.00
C 720.67 663.71 709.52 654.73 711.94 649.92 C 714.35 645.11 727.09 640.86 731.00 640.00
M 689.00 650.00 
C 691.09 658.41 700.55 655.75 706.00 653.00
C 711.14 659.49 716.75 665.54 720.00 673.00
C 702.70 672.41 684.64 666.38 667.00 664.00
C 671.58 655.99 681.91 653.38 689.00 650.00 Z"/>
</g>
<g fill="#131311" fill-opacity="1.00" stroke="None">
<path d="
M 728.00 633.00 
C 710.41 628.61 691.04 624.51 673.00 623.00
C 676.36 631.25 683.43 633.49 687.75 642.25 C 692.06 651.02 700.44 652.16 707.75 645.75 C 715.07 639.35 721.24 639.46 728.00 633.00 Z"/>
</g>
<g fill="#131311" fill-opacity="1.00" stroke="None">
<path d="
M 683.00 648.00 
C 683.20 639.51 678.00 641.16 674.75 633.25 C 671.51 625.33 667.60 628.02 667.33 636.33 C 667.06 644.63 663.55 647.91 664.00 656.00
C 671.13 655.27 675.85 648.80 683.00 648.00 Z"/>
</g>
<g fill="#131311" fill-opacity="1.00" stroke="None">
<path d="
M 731.00 640.00 
C 727.09 640.86 714.35 645.11 711.94 649.92 C 709.52 654.73 720.67 663.71 724.00 667.00
C 728.21 658.96 727.38 648.60 731.00 640.00 Z"/>
</g>
<g fill="#131311" fill-opacity="1.00" stroke="None">
<path d="
M 689.00 650.00 
C 681.91 653.38 671.58 655.99 667.00 664.00
C 684.64 666.38 702.70 672.41 720.00 673.00
C 716.75 665.54 711.14 659.49 706.00 653.00
C 700.55 655.75 691.09 658.41 689.00 650.00 Z"/>
</g>
<g fill="#131311" fill-opacity="1.00" stroke="None">
<path d="
M 503.00 664.00 
C 502.26 659.93 497.95 652.80 493.32 657.32 C 488.69 661.84 493.89 664.11 496.00 668.00
C 499.30 668.41 500.11 665.08 503.00 664.00 Z"/>
</g>
<g fill="#131311" fill-opacity="1.00" stroke="None">
<path d="
M 483.00 668.00 
C 482.24 672.19 487.28 680.13 491.23 676.23 C 495.18 672.33 493.79 667.55 489.00 665.00
C 486.90 665.81 485.77 668.92 483.00 668.00 Z"/>
</g>
</svg>