<svg xmlns="http://www.w3.org/2000/svg" xmlns:v="https://svgstorm.com"
viewBox = "0 0 1024 768"
width="1024"
height="768">
<g fill="None" fill-opacity="0.0" stroke="#000000" stroke-opacity="0.00" stroke-width="0.3"><path d="
M 0.00 768.00 
L 1024.00 768.00
L 1024.00 0.00
L 0.00 0.00
L 0.00 768.00
M 384.00 131.00 
C 385.01 139.11 376.24 143.93 377.00 152.00
C 368.52 156.24 362.31 157.52 357.70 149.31 C 353.08 141.09 359.07 131.98 354.07 124.93 C 349.08 117.87 342.26 116.41 340.07 107.93 C 337.89 99.44 333.05 92.57 335.93 83.93 C 338.81 75.28 338.53 69.12 344.75 62.75 C 350.97 56.38 355.12 52.49 363.22 50.22 C 371.33 47.96 381.35 46.85 389.07 49.93 C 396.80 53.01 402.57 55.71 407.25 62.75 C 411.92 69.79 415.54 75.06 416.00 84.00 C 416.46 92.94 415.26 101.73 411.70 109.69 C 408.13 117.66 401.51 119.11 396.25 125.25 C 391.00 131.40 399.80 138.30 404.75 144.25 C 409.71 150.19 412.03 153.88 422.07 156.93 C 432.12 159.97 425.27 165.10 416.92 159.08 C 408.56 153.06 406.69 152.26 400.25 145.75 C 393.81 139.24 393.12 131.77 384.00 131.00
M 670.00 60.00 
C 680.84 61.76 689.31 71.62 690.99 83.01 C 692.68 94.39 688.43 107.90 686.07 120.07 C 683.72 132.25 678.78 141.55 677.00 155.00 C 675.22 168.45 655.33 161.75 646.33 159.67 C 637.33 157.60 616.51 156.12 620.98 142.98 C 625.45 129.83 626.28 119.91 629.93 107.93 C 633.57 95.94 632.75 83.32 639.31 73.31 C 645.86 63.29 658.41 58.12 670.00 60.00
M 795.00 231.00 
C 790.29 230.65 782.55 232.95 778.00 231.00
C 777.16 229.61 774.54 227.21 777.00 226.00
C 779.35 219.84 789.05 218.24 790.00 211.00
C 785.20 206.20 785.36 198.62 785.00 192.00
C 791.71 192.29 797.29 198.47 803.68 198.66 C 810.07 198.85 812.27 186.23 818.23 187.23 C 824.19 188.23 817.36 202.71 821.26 207.74 C 825.16 212.77 834.12 213.46 836.00 220.00
C 829.12 222.00 822.91 225.92 816.00 228.00
C 816.04 234.86 813.63 242.19 809.00 247.00
C 804.60 241.74 802.66 232.24 795.00 231.00
M 184.00 198.00 
C 183.01 192.04 196.25 185.26 199.92 194.08 C 203.58 202.91 194.94 208.60 187.78 208.78 C 180.62 208.96 168.76 208.81 167.01 215.01 C 165.26 221.21 155.83 226.33 150.75 220.25 C 145.68 214.17 147.94 207.01 155.23 204.23 C 162.52 201.45 168.22 211.38 175.07 207.07 C 181.92 202.77 193.24 211.32 197.92 202.92 C 202.59 194.51 188.87 191.08 184.00 198.00
M 507.00 322.00 
C 523.82 321.55 538.44 331.01 544.97 346.03 C 551.50 361.04 553.60 380.22 552.22 396.22 C 550.84 412.22 546.04 422.58 535.23 434.23 C 524.42 445.88 506.86 448.12 494.25 439.61 C 481.63 431.09 475.57 415.22 473.24 401.75 C 470.92 388.29 472.71 363.49 477.92 351.92 C 483.13 340.35 492.51 322.39 507.00 322.00
M 452.00 395.00 
C 468.04 389.58 472.35 408.37 462.00 417.00
C 450.80 411.94 450.81 423.57 452.01 432.01 C 453.21 440.44 442.83 443.68 434.00 441.00 C 425.17 438.32 430.32 423.27 429.00 416.00
C 417.21 412.26 399.35 421.02 388.78 416.22 C 378.21 411.42 382.53 395.51 388.77 388.77 C 395.01 382.03 399.45 372.78 404.77 364.77 C 410.09 356.76 415.67 347.42 420.80 339.75 C 425.93 332.08 431.27 322.47 442.25 323.20 C 453.22 323.93 453.06 339.82 452.00 352.00 C 450.94 364.18 452.79 382.28 452.00 395.00
M 626.00 395.00 
C 635.72 393.93 640.71 394.79 641.00 405.00 C 641.29 415.21 636.15 417.69 626.00 416.00
C 625.37 428.83 630.50 441.23 614.00 441.00 C 597.50 440.77 604.32 426.37 603.00 414.00
C 591.87 417.62 582.31 413.30 571.00 416.00 C 559.69 418.70 554.21 408.17 558.31 399.31 C 562.41 390.44 565.85 384.17 571.75 376.75 C 577.65 369.34 578.53 363.31 584.77 355.77 C 591.01 348.24 592.84 340.38 598.31 333.31 C 603.77 326.23 611.59 320.73 620.25 324.75 C 628.90 328.78 625.78 346.47 626.00 357.00 C 626.22 367.53 625.84 383.93 626.00 395.00
M 185.00 414.00 
C 196.05 415.79 202.66 427.25 205.98 437.03 C 209.29 446.80 200.29 462.03 195.08 469.08 C 189.88 476.13 183.27 496.25 174.10 488.90 C 164.93 481.55 165.10 470.24 157.08 461.92 C 149.06 453.60 148.31 437.78 153.78 427.78 C 159.24 417.77 173.69 412.16 185.00 414.00
M 888.00 425.00 
C 886.36 439.82 891.49 462.19 875.00 469.00
C 873.85 466.63 875.30 464.70 875.00 462.00
C 864.18 472.59 857.06 475.64 847.25 488.25 C 837.44 500.85 816.64 483.45 826.25 471.25 C 835.87 459.06 845.56 454.59 851.00 441.00
C 841.09 442.22 851.70 428.65 860.00 430.00 C 868.31 431.35 879.72 425.65 888.00 425.00
M 329.00 590.00 
C 338.53 591.36 347.02 596.79 348.98 606.02 C 350.93 615.26 348.65 627.86 359.75 631.25 C 370.85 634.64 367.74 652.29 357.93 647.07 C 348.12 641.86 345.18 632.33 333.78 637.78 C 322.38 643.23 315.11 637.37 307.75 630.25 C 300.40 623.13 300.51 611.50 304.77 602.77 C 309.03 594.04 318.94 588.56 329.00 590.00
M 553.00 604.00 
C 553.54 610.49 550.39 615.99 549.00 622.00
C 537.34 619.79 528.50 630.12 521.75 637.75 C 515.00 645.38 502.89 652.69 507.00 665.00
C 501.48 669.32 498.59 673.32 493.25 678.25 C 487.91 683.17 477.14 675.35 479.98 668.98 C 482.81 662.60 487.48 658.53 492.75 654.75 C 498.01 650.96 508.41 652.49 510.92 644.92 C 513.42 637.35 521.05 637.89 524.25 631.25 C 527.45 624.60 536.26 623.75 535.98 614.98 C 535.69 606.20 545.58 605.67 553.00 604.00
M 736.00 631.00 
C 737.33 640.60 730.32 650.54 730.68 659.68 C 731.04 668.82 725.13 683.14 714.33 677.67 C 703.53 672.20 695.22 676.44 685.98 672.02 C 676.73 667.61 665.97 671.21 659.25 663.75 C 652.53 656.29 665.92 646.29 663.93 636.93 C 661.93 627.57 668.40 613.94 679.67 618.33 C 690.94 622.72 697.60 620.92 708.02 623.98 C 718.44 627.03 726.46 626.09 736.00 631.00 Z"/>
</g>
<g fill="None" fill-opacity="0.0" stroke="#FEFFFE" stroke-opacity="1.00" stroke-width="0.3"><path d="
M 384.00 131.00 
C 393.12 131.77 393.81 139.24 400.25 145.75 C 406.69 152.26 408.56 153.06 416.92 159.08 C 425.27 165.10 432.12 159.97 422.07 156.93 C 412.03 153.88 409.71 150.19 404.75 144.25 C 399.80 138.30 391.00 131.40 396.25 125.25 C 401.51 119.11 408.13 117.66 411.70 109.69 C 415.26 101.73 416.46 92.94 416.00 84.00 C 415.54 75.06 411.92 69.79 407.25 62.75 C 402.57 55.71 396.80 53.01 389.07 49.93 C 381.35 46.85 371.33 47.96 363.22 50.22 C 355.12 52.49 350.97 56.38 344.75 62.75 C 338.53 69.12 338.81 75.28 335.93 83.93 C 333.05 92.57 337.89 99.44 340.07 107.93 C 342.26 116.41 349.08 117.87 354.07 124.93 C 359.07 131.98 353.08 141.09 357.70 149.31 C 362.31 157.52 368.52 156.24 377.00 152.00
C 376.24 143.93 385.01 139.11 384.00 131.00
M 384.00 53.00 
C 393.08 54.47 401.27 61.35 406.75 69.25 C 412.23 77.14 414.62 93.08 410.07 102.07 C 405.53 111.06 402.11 120.08 390.97 122.97 C 379.84 125.87 381.39 141.86 368.78 139.22 C 356.17 136.58 362.89 120.70 352.77 116.23 C 342.65 111.76 339.90 99.20 340.00 89.00 C 340.10 78.80 343.56 67.46 351.75 60.75 C 359.95 54.04 373.15 51.24 384.00 53.00 Z"/>
</g>
<g fill="None" fill-opacity="0.0" stroke="#000000" stroke-opacity="1.00" stroke-width="0.3"><path d="
M 384.00 53.00 
C 373.15 51.24 359.95 54.04 351.75 60.75 C 343.56 67.46 340.10 78.80 340.00 89.00 C 339.90 99.20 342.65 111.76 352.77 116.23 C 362.89 120.70 356.17 136.58 368.78 139.22 C 381.39 141.86 379.84 125.87 390.97 122.97 C 402.11 120.08 405.53 111.06 410.07 102.07 C 414.62 93.08 412.23 77.14 406.75 69.25 C 401.27 61.35 393.08 54.47 384.00 53.00 Z"/>
</g>
<g fill="None" fill-opacity="0.0" stroke="#FEFFFE" stroke-opacity="1.00" stroke-width="0.3"><path d="
M 670.00 60.00 
C 658.41 58.12 645.86 63.29 639.31 73.31 C 632.75 83.32 633.57 95.94 629.93 107.93 C 626.28 119.91 625.45 129.83 620.98 142.98 C 616.51 156.12 637.33 157.60 646.33 159.67 C 655.33 161.75 675.22 168.45 677.00 155.00 C 678.78 141.55 683.72 132.25 686.07 120.07 C 688.43 107.90 692.68 94.39 690.99 83.01 C 689.31 71.62 680.84 61.76 670.00 60.00
M 670.00 160.00 
C 657.28 154.81 646.54 157.70 633.33 152.67 C 620.12 147.65 630.09 131.43 631.98 120.98 C 633.86 110.52 637.80 95.08 640.33 84.33 C 642.86 73.58 654.59 63.40 665.67 65.33 C 676.75 67.26 687.81 75.93 687.98 88.02 C 688.14 100.12 681.41 112.98 680.00 125.00 C 678.59 137.02 674.00 148.70 670.00 160.00 Z"/>
</g>
<g fill="None" fill-opacity="0.0" stroke="#000000" stroke-opacity="1.00" stroke-width="0.3"><path d="
M 670.00 160.00 
C 674.00 148.70 678.59 137.02 680.00 125.00 C 681.41 112.98 688.14 100.12 687.98 88.02 C 687.81 75.93 676.75 67.26 665.67 65.33 C 654.59 63.40 642.86 73.58 640.33 84.33 C 637.80 95.08 633.86 110.52 631.98 120.98 C 630.09 131.43 620.12 147.65 633.33 152.67 C 646.54 157.70 657.28 154.81 670.00 160.00 Z"/>
</g>
<g fill="None" fill-opacity="0.0" stroke="#FEFEFE" stroke-opacity="1.00" stroke-width="0.3"><path d="
M 777.00 226.00 
C 776.87 231.90 791.80 230.03 795.00 231.00
C 802.66 232.24 804.60 241.74 809.00 247.00
C 813.63 242.19 816.04 234.86 816.00 228.00
C 822.91 225.92 829.12 222.00 836.00 220.00
C 834.12 213.46 825.16 212.77 821.26 207.74 C 817.36 202.71 824.19 188.23 818.23 187.23 C 812.27 186.23 810.07 198.85 803.68 198.66 C 797.29 198.47 791.71 192.29 785.00 192.00
C 785.36 198.62 785.20 206.20 790.00 211.00
C 789.05 218.24 779.35 219.84 777.00 226.00
M 818.00 193.00 
C 820.40 200.90 813.07 208.82 823.03 212.97 C 832.99 217.13 825.75 221.06 818.92 222.92 C 812.10 224.79 813.30 235.78 810.00 240.00
C 802.94 240.27 804.99 226.63 797.99 228.01 C 790.99 229.38 779.46 227.31 786.92 219.92 C 794.38 212.52 790.94 212.36 789.08 203.92 C 787.21 195.49 802.08 200.30 806.00 202.00
C 808.03 197.98 813.43 194.03 818.00 193.00 Z"/>
</g>
<g fill="None" fill-opacity="0.0" stroke="#FEFFFE" stroke-opacity="1.00" stroke-width="0.3"><path d="
M 184.00 198.00 
C 188.87 191.08 202.59 194.51 197.92 202.92 C 193.24 211.32 181.92 202.77 175.07 207.07 C 168.22 211.38 162.52 201.45 155.23 204.23 C 147.94 207.01 145.68 214.17 150.75 220.25 C 155.83 226.33 165.26 221.21 167.01 215.01 C 168.76 208.81 180.62 208.96 187.78 208.78 C 194.94 208.60 203.58 202.91 199.92 194.08 C 196.25 185.26 183.01 192.04 184.00 198.00
M 161.00 205.00 
C 168.45 207.44 162.97 223.92 154.78 219.22 C 146.59 214.53 153.98 202.70 161.00 205.00 Z"/>
</g>
<g fill="None" fill-opacity="0.0" stroke="#000000" stroke-opacity="1.00" stroke-width="0.3"><path d="
M 818.00 193.00 
C 813.43 194.03 808.03 197.98 806.00 202.00
C 802.08 200.30 787.21 195.49 789.08 203.92 C 790.94 212.36 794.38 212.52 786.92 219.92 C 779.46 227.31 790.99 229.38 797.99 228.01 C 804.99 226.63 802.94 240.27 810.00 240.00
C 813.30 235.78 812.10 224.79 818.92 222.92 C 825.75 221.06 832.99 217.13 823.03 212.97 C 813.07 208.82 820.40 200.90 818.00 193.00 Z"/>
</g>
<g fill="None" fill-opacity="0.0" stroke="#000000" stroke-opacity="1.00" stroke-width="0.3"><path d="
M 161.00 205.00 
C 153.98 202.70 146.59 214.53 154.78 219.22 C 162.97 223.92 168.45 207.44 161.00 205.00 Z"/>
</g>
<g fill="None" fill-opacity="0.0" stroke="#000000" stroke-opacity="0.69" stroke-width="0.3"><path d="
M 795.00 231.00 
C 791.80 230.03 776.87 231.90 777.00 226.00
C 774.54 227.21 777.16 229.61 778.00 231.00
C 782.55 232.95 790.29 230.65 795.00 231.00 Z"/>
</g>
<g fill="None" fill-opacity="0.0" stroke="#FFFFFF" stroke-opacity="0.99" stroke-width="0.3"><path d="
M 507.00 322.00 
C 492.51 322.39 483.13 340.35 477.92 351.92 C 472.71 363.49 470.92 388.29 473.24 401.75 C 475.57 415.22 481.63 431.09 494.25 439.61 C 506.86 448.12 524.42 445.88 535.23 434.23 C 546.04 422.58 550.84 412.22 552.22 396.22 C 553.60 380.22 551.50 361.04 544.97 346.03 C 538.44 331.01 523.82 321.55 507.00 322.00
M 515.00 343.00 
C 525.96 344.36 523.13 357.85 525.80 365.25 C 528.47 372.65 527.51 388.90 527.00 398.00 C 526.49 407.10 524.31 422.96 512.30 422.65 C 500.29 422.34 501.87 412.53 498.22 401.78 C 494.58 391.02 498.78 373.15 499.92 363.92 C 501.06 354.69 502.16 341.41 515.00 343.00 Z"/>
</g>
<g fill="None" fill-opacity="0.0" stroke="#FEFEFE" stroke-opacity="0.99" stroke-width="0.3"><path d="
M 452.00 395.00 
C 452.79 382.28 450.94 364.18 452.00 352.00 C 453.06 339.82 453.22 323.93 442.25 323.20 C 431.27 322.47 425.93 332.08 420.80 339.75 C 415.67 347.42 410.09 356.76 404.77 364.77 C 399.45 372.78 395.01 382.03 388.77 388.77 C 382.53 395.51 378.21 411.42 388.78 416.22 C 399.35 421.02 417.21 412.26 429.00 416.00
C 430.32 423.27 425.17 438.32 434.00 441.00 C 442.83 443.68 453.21 440.44 452.01 432.01 C 450.81 423.57 450.80 411.94 462.00 417.00
C 472.35 408.37 468.04 389.58 452.00 395.00
M 430.00 362.00 
C 430.65 372.95 428.18 384.04 430.00 396.00
C 422.18 396.09 415.62 394.98 408.00 396.00
C 413.90 384.60 421.88 371.77 430.00 362.00 Z"/>
</g>
<g fill="None" fill-opacity="0.0" stroke="#FEFEFE" stroke-opacity="0.99" stroke-width="0.3"><path d="
M 626.00 395.00 
C 625.84 383.93 626.22 367.53 626.00 357.00 C 625.78 346.47 628.90 328.78 620.25 324.75 C 611.59 320.73 603.77 326.23 598.31 333.31 C 592.84 340.38 591.01 348.24 584.77 355.77 C 578.53 363.31 577.65 369.34 571.75 376.75 C 565.85 384.17 562.41 390.44 558.31 399.31 C 554.21 408.17 559.69 418.70 571.00 416.00 C 582.31 413.30 591.87 417.62 603.00 414.00
C 604.32 426.37 597.50 440.77 614.00 441.00 C 630.50 441.23 625.37 428.83 626.00 416.00
C 636.15 417.69 641.29 415.21 641.00 405.00 C 640.71 394.79 635.72 393.93 626.00 395.00
M 603.00 395.00 
C 596.33 395.00 589.67 395.00 583.00 395.00
C 589.12 384.06 594.40 374.71 602.00 364.00
C 604.32 373.42 602.35 384.82 603.00 395.00 Z"/>
</g>
<g fill="None" fill-opacity="0.0" stroke="#000000" stroke-opacity="0.00" stroke-width="0.3"><path d="
M 515.00 343.00 
C 502.16 341.41 501.06 354.69 499.92 363.92 C 498.78 373.15 494.58 391.02 498.22 401.78 C 501.87 412.53 500.29 422.34 512.30 422.65 C 524.31 422.96 526.49 407.10 527.00 398.00 C 527.51 388.90 528.47 372.65 525.80 365.25 C 523.13 357.85 525.96 344.36 515.00 343.00 Z"/>
</g>
<g fill="None" fill-opacity="0.0" stroke="#000000" stroke-opacity="0.00" stroke-width="0.3"><path d="
M 430.00 362.00 
C 421.88 371.77 413.90 384.60 408.00 396.00
C 415.62 394.98 422.18 396.09 430.00 396.00
C 428.18 384.04 430.65 372.95 430.00 362.00 Z"/>
</g>
<g fill="None" fill-opacity="0.0" stroke="#000000" stroke-opacity="0.00" stroke-width="0.3"><path d="
M 603.00 395.00 
C 602.35 384.82 604.32 373.42 602.00 364.00
C 594.40 374.71 589.12 384.06 583.00 395.00
C 589.67 395.00 596.33 395.00 603.00 395.00 Z"/>
</g>
<g fill="None" fill-opacity="0.0" stroke="#FEFFFE" stroke-opacity="1.00" stroke-width="0.3"><path d="
M 185.00 414.00 
C 173.69 412.16 159.24 417.77 153.78 427.78 C 148.31 437.78 149.06 453.60 157.08 461.92 C 165.10 470.24 164.93 481.55 174.10 488.90 C 183.27 496.25 189.88 476.13 195.08 469.08 C 200.29 462.03 209.29 446.80 205.98 437.03 C 202.66 427.25 196.05 415.79 185.00 414.00
M 175.00 486.00 
C 168.75 467.62 146.92 452.96 155.93 431.93 C 164.93 410.89 196.99 415.03 201.77 435.23 C 206.55 455.43 189.04 474.80 175.00 486.00 Z"/>
</g>
<g fill="None" fill-opacity="0.0" stroke="#000000" stroke-opacity="1.00" stroke-width="0.3"><path d="
M 175.00 486.00 
C 189.04 474.80 206.55 455.43 201.77 435.23 C 196.99 415.03 164.93 410.89 155.93 431.93 C 146.92 452.96 168.75 467.62 175.00 486.00
M 184.00 430.00 
C 190.60 432.22 193.23 447.44 185.75 451.75 C 178.27 456.06 169.44 454.57 166.68 444.32 C 163.92 434.08 173.52 426.48 184.00 430.00 Z"/>
</g>
<g fill="None" fill-opacity="0.0" stroke="#FEFFFE" stroke-opacity="1.00" stroke-width="0.3"><path d="
M 888.00 425.00 
C 879.72 425.65 868.31 431.35 860.00 430.00 C 851.70 428.65 841.09 442.22 851.00 441.00
C 845.56 454.59 835.87 459.06 826.25 471.25 C 816.64 483.45 837.44 500.85 847.25 488.25 C 857.06 475.64 864.18 472.59 875.00 462.00
C 875.30 464.70 873.85 466.63 875.00 469.00
C 891.49 462.19 886.36 439.82 888.00 425.00
M 872.00 432.00 
C 876.84 428.26 887.26 430.10 884.06 437.08 C 880.87 444.06 872.02 436.65 872.00 432.00
M 866.00 435.00 
C 872.05 434.91 884.81 447.76 877.25 453.25 C 869.69 458.73 866.39 465.30 859.25 471.25 C 852.10 477.20 849.65 484.00 841.75 489.75 C 833.86 495.50 822.72 476.88 831.25 472.25 C 839.78 467.61 841.69 458.10 849.25 454.25 C 856.80 450.40 857.73 435.13 866.00 435.00 Z"/>
</g>
<g fill="None" fill-opacity="0.0" stroke="#FEFEFE" stroke-opacity="1.00" stroke-width="0.3"><path d="
M 184.00 430.00 
C 173.52 426.48 163.92 434.08 166.68 444.32 C 169.44 454.57 178.27 456.06 185.75 451.75 C 193.23 447.44 190.60 432.22 184.00 430.00
M 182.00 433.00 
C 192.79 435.90 185.17 455.49 174.78 450.22 C 164.39 444.95 171.55 430.19 182.00 433.00 Z"/>
</g>
<g fill="None" fill-opacity="0.0" stroke="#000000" stroke-opacity="1.00" stroke-width="0.3"><path d="
M 872.00 432.00 
C 872.02 436.65 880.87 444.06 884.06 437.08 C 887.26 430.10 876.84 428.26 872.00 432.00 Z"/>
</g>
<g fill="None" fill-opacity="0.0" stroke="#000000" stroke-opacity="1.00" stroke-width="0.3"><path d="
M 182.00 433.00 
C 171.55 430.19 164.39 444.95 174.78 450.22 C 185.17 455.49 192.79 435.90 182.00 433.00 Z"/>
</g>
<g fill="None" fill-opacity="0.0" stroke="#000000" stroke-opacity="1.00" stroke-width="0.3"><path d="
M 866.00 435.00 
C 857.73 435.13 856.80 450.40 849.25 454.25 C 841.69 458.10 839.78 467.61 831.25 472.25 C 822.72 476.88 833.86 495.50 841.75 489.75 C 849.65 484.00 852.10 477.20 859.25 471.25 C 866.39 465.30 869.69 458.73 877.25 453.25 C 884.81 447.76 872.05 434.91 866.00 435.00 Z"/>
</g>
<g fill="None" fill-opacity="0.0" stroke="#FEFFFE" stroke-opacity="1.00" stroke-width="0.3"><path d="
M 329.00 590.00 
C 318.94 588.56 309.03 594.04 304.77 602.77 C 300.51 611.50 300.40 623.13 307.75 630.25 C 315.11 637.37 322.38 643.23 333.78 637.78 C 345.18 632.33 348.12 641.86 357.93 647.07 C 367.74 652.29 370.85 634.64 359.75 631.25 C 348.65 627.86 350.93 615.26 348.98 606.02 C 347.02 596.79 338.53 591.36 329.00 590.00
M 328.00 595.00 
C 352.40 596.84 350.03 636.76 325.00 635.00 C 299.97 633.23 302.23 593.05 328.00 595.00 Z"/>
</g>
<g fill="None" fill-opacity="0.0" stroke="#000000" stroke-opacity="1.00" stroke-width="0.3"><path d="
M 328.00 595.00 
C 302.23 593.05 299.97 633.23 325.00 635.00 C 350.03 636.76 352.40 596.84 328.00 595.00 Z"/>
</g>
<g fill="None" fill-opacity="0.0" stroke="#FEFEFE" stroke-opacity="1.00" stroke-width="0.3"><path d="
M 553.00 604.00 
C 545.58 605.67 535.69 606.20 535.98 614.98 C 536.26 623.75 527.45 624.60 524.25 631.25 C 521.05 637.89 513.42 637.35 510.92 644.92 C 508.41 652.49 498.01 650.96 492.75 654.75 C 487.48 658.53 482.81 662.60 479.98 668.98 C 477.14 675.35 487.91 683.17 493.25 678.25 C 498.59 673.32 501.48 669.32 507.00 665.00
C 502.89 652.69 515.00 645.38 521.75 637.75 C 528.50 630.12 537.34 619.79 549.00 622.00
C 550.39 615.99 553.54 610.49 553.00 604.00
M 498.00 655.00 
C 504.82 656.75 504.34 669.49 496.92 668.92 C 489.50 668.35 489.33 652.77 498.00 655.00
M 482.00 668.00 
C 487.36 662.79 496.82 666.05 493.22 674.22 C 489.63 682.40 481.23 674.07 482.00 668.00 Z"/>
</g>
<g fill="None" fill-opacity="0.0" stroke="#FEFEFE" stroke-opacity="1.00" stroke-width="0.3"><path d="
M 736.00 631.00 
C 726.46 626.09 718.44 627.03 708.02 623.98 C 697.60 620.92 690.94 622.72 679.67 618.33 C 668.40 613.94 661.93 627.57 663.93 636.93 C 665.92 646.29 652.53 656.29 659.25 663.75 C 665.97 671.21 676.73 667.61 685.98 672.02 C 695.22 676.44 703.53 672.20 714.33 677.67 C 725.13 683.14 731.04 668.82 730.68 659.68 C 730.32 650.54 737.33 640.60 736.00 631.00
M 728.00 632.00 
C 720.41 637.40 707.54 651.87 696.78 650.22 C 686.01 648.56 679.86 629.44 672.00 623.00
C 690.56 622.50 709.62 628.43 728.00 632.00
M 664.00 657.00 
C 664.46 650.76 664.21 635.49 667.93 629.93 C 671.65 624.37 680.99 639.20 682.97 644.03 C 684.96 648.86 669.36 655.43 664.00 657.00
M 732.00 640.00 
C 728.37 648.64 728.57 658.33 725.00 667.00
C 720.10 664.98 708.30 655.98 711.33 649.33 C 714.36 642.68 726.63 640.56 732.00 640.00
M 689.00 649.00 
C 691.22 656.95 700.64 655.43 706.00 652.00
C 711.55 658.75 716.98 665.37 721.00 673.00
C 702.94 674.51 685.14 666.57 667.00 665.00
C 669.40 655.25 681.41 653.32 689.00 649.00 Z"/>
</g>
<g fill="None" fill-opacity="0.0" stroke="#000000" stroke-opacity="1.00" stroke-width="0.3"><path d="
M 728.00 632.00 
C 709.62 628.43 690.56 622.50 672.00 623.00
C 679.86 629.44 686.01 648.56 696.78 650.22 C 707.54 651.87 720.41 637.40 728.00 632.00 Z"/>
</g>
<g fill="None" fill-opacity="0.0" stroke="#000000" stroke-opacity="1.00" stroke-width="0.3"><path d="
M 664.00 657.00 
C 669.36 655.43 684.96 648.86 682.97 644.03 C 680.99 639.20 671.65 624.37 667.93 629.93 C 664.21 635.49 664.46 650.76 664.00 657.00 Z"/>
</g>
<g fill="None" fill-opacity="0.0" stroke="#000000" stroke-opacity="1.00" stroke-width="0.3"><path d="
M 732.00 640.00 
C 726.63 640.56 714.36 642.68 711.33 649.33 C 708.30 655.98 720.10 664.98 725.00 667.00
C 728.57 658.33 728.37 648.64 732.00 640.00 Z"/>
</g>
<g fill="None" fill-opacity="0.0" stroke="#000000" stroke-opacity="1.00" stroke-width="0.3"><path d="
M 689.00 649.00 
C 681.41 653.32 669.40 655.25 667.00 665.00
C 685.14 666.57 702.94 674.51 721.00 673.00
C 716.98 665.37 711.55 658.75 706.00 652.00
C 700.64 655.43 691.22 656.95 689.00 649.00 Z"/>
</g>
<g fill="None" fill-opacity="0.0" stroke="#000000" stroke-opacity="1.00" stroke-width="0.3"><path d="
M 498.00 655.00 
C 489.33 652.77 489.50 668.35 496.92 668.92 C 504.34 669.49 504.82 656.75 498.00 655.00 Z"/>
</g>
<g fill="None" fill-opacity="0.0" stroke="#000000" stroke-opacity="1.00" stroke-width="0.3"><path d="
M 482.00 668.00 
C 481.23 674.07 489.63 682.40 493.22 674.22 C 496.82 666.05 487.36 662.79 482.00 668.00 Z"/>
</g>
<g fill="#000000" fill-opacity="0.00" stroke="None">
<path d="
M 0.00 768.00 
L 1024.00 768.00
L 1024.00 0.00
L 0.00 0.00
L 0.00 768.00
M 384.00 131.00 
C 385.01 139.11 376.24 143.93 377.00 152.00
C 368.52 156.24 362.31 157.52 357.70 149.31 C 353.08 141.09 359.07 131.98 354.07 124.93 C 349.08 117.87 342.26 116.41 340.07 107.93 C 337.89 99.44 333.05 92.57 335.93 83.93 C 338.81 75.28 338.53 69.12 344.75 62.75 C 350.97 56.38 355.12 52.49 363.22 50.22 C 371.33 47.96 381.35 46.85 389.07 49.93 C 396.80 53.01 402.57 55.71 407.25 62.75 C 411.92 69.79 415.54 75.06 416.00 84.00 C 416.46 92.94 415.26 101.73 411.70 109.69 C 408.13 117.66 401.51 119.11 396.25 125.25 C 391.00 131.40 399.80 138.30 404.75 144.25 C 409.71 150.19 412.03 153.88 422.07 156.93 C 432.12 159.97 425.27 165.10 416.92 159.08 C 408.56 153.06 406.69 152.26 400.25 145.75 C 393.81 139.24 393.12 131.77 384.00 131.00
M 670.00 60.00 
C 680.84 61.76 689.31 71.62 690.99 83.01 C 692.68 94.39 688.43 107.90 686.07 120.07 C 683.72 132.25 678.78 141.55 677.00 155.00 C 675.22 168.45 655.33 161.75 646.33 159.67 C 637.33 157.60 616.51 156.12 620.98 142.98 C 625.45 129.83 626.28 119.91 629.93 107.93 C 633.57 95.94 632.75 83.32 639.31 73.31 C 645.86 63.29 658.41 58.12 670.00 60.00
M 795.00 231.00 
C 790.29 230.65 782.55 232.95 778.00 231.00
C 777.16 229.61 774.54 227.21 777.00 226.00
C 779.35 219.84 789.05 218.24 790.00 211.00
C 785.20 206.20 785.36 198.62 785.00 192.00
C 791.71 192.29 797.29 198.47 803.68 198.66 C 810.07 198.85 812.27 186.23 818.23 187.23 C 824.19 188.23 817.36 202.71 821.26 207.74 C 825.16 212.77 834.12 213.46 836.00 220.00
C 829.12 222.00 822.91 225.92 816.00 228.00
C 816.04 234.86 813.63 242.19 809.00 247.00
C 804.60 241.74 802.66 232.24 795.00 231.00
M 184.00 198.00 
C 183.01 192.04 196.25 185.26 199.92 194.08 C 203.58 202.91 194.94 208.60 187.78 208.78 C 180.62 208.96 168.76 208.81 167.01 215.01 C 165.26 221.21 155.83 226.33 150.75 220.25 C 145.68 214.17 147.94 207.01 155.23 204.23 C 162.52 201.45 168.22 211.38 175.07 207.07 C 181.92 202.77 193.24 211.32 197.92 202.92 C 202.59 194.51 188.87 191.08 184.00 198.00
M 507.00 322.00 
C 523.82 321.55 538.44 331.01 544.97 346.03 C 551.50 361.04 553.60 380.22 552.22 396.22 C 550.84 412.22 546.04 422.58 535.23 434.23 C 524.42 445.88 506.86 448.12 494.25 439.61 C 481.63 431.09 475.57 415.22 473.24 401.75 C 470.92 388.29 472.71 363.49 477.92 351.92 C 483.13 340.35 492.51 322.39 507.00 322.00
M 452.00 395.00 
C 468.04 389.58 472.35 408.37 462.00 417.00
C 450.80 411.94 450.81 423.57 452.01 432.01 C 453.21 440.44 442.83 443.68 434.00 441.00 C 425.17 438.32 430.32 423.27 429.00 416.00
C 417.21 412.26 399.35 421.02 388.78 416.22 C 378.21 411.42 382.53 395.51 388.77 388.77 C 395.01 382.03 399.45 372.78 404.77 364.77 C 410.09 356.76 415.67 347.42 420.80 339.75 C 425.93 332.08 431.27 322.47 442.25 323.20 C 453.22 323.93 453.06 339.82 452.00 352.00 C 450.94 364.18 452.79 382.28 452.00 395.00
M 626.00 395.00 
C 635.72 393.93 640.71 394.79 641.00 405.00 C 641.29 415.21 636.15 417.69 626.00 416.00
C 625.37 428.83 630.50 441.23 614.00 441.00 C 597.50 440.77 604.32 426.37 603.00 414.00
C 591.87 417.62 582.31 413.30 571.00 416.00 C 559.69 418.70 554.21 408.17 558.31 399.31 C 562.41 390.44 565.85 384.17 571.75 376.75 C 577.65 369.34 578.53 363.31 584.77 355.77 C 591.01 348.24 592.84 340.38 598.31 333.31 C 603.77 326.23 611.59 320.73 620.25 324.75 C 628.90 328.78 625.78 346.47 626.00 357.00 C 626.22 367.53 625.84 383.93 626.00 395.00
M 185.00 414.00 
C 196.05 415.79 202.66 427.25 205.98 437.03 C 209.29 446.80 200.29 462.03 195.08 469.08 C 189.88 476.13 183.27 496.25 174.10 488.90 C 164.93 481.55 165.10 470.24 157.08 461.92 C 149.06 453.60 148.31 437.78 153.78 427.78 C 159.24 417.77 173.69 412.16 185.00 414.00
M 888.00 425.00 
C 886.36 439.82 891.49 462.19 875.00 469.00
C 873.85 466.63 875.30 464.70 875.00 462.00
C 864.18 472.59 857.06 475.64 847.25 488.25 C 837.44 500.85 816.64 483.45 826.25 471.25 C 835.87 459.06 845.56 454.59 851.00 441.00
C 841.09 442.22 851.70 428.65 860.00 430.00 C 868.31 431.35 879.72 425.65 888.00 425.00
M 329.00 590.00 
C 338.53 591.36 347.02 596.79 348.98 606.02 C 350.93 615.26 348.65 627.86 359.75 631.25 C 370.85 634.64 367.74 652.29 357.93 647.07 C 348.12 641.86 345.18 632.33 333.78 637.78 C 322.38 643.23 315.11 637.37 307.75 630.25 C 300.40 623.13 300.51 611.50 304.77 602.77 C 309.03 594.04 318.94 588.56 329.00 590.00
M 553.00 604.00 
C 553.54 610.49 550.39 615.99 549.00 622.00
C 537.34 619.79 528.50 630.12 521.75 637.75 C 515.00 645.38 502.89 652.69 507.00 665.00
C 501.48 669.32 498.59 673.32 493.25 678.25 C 487.91 683.17 477.14 675.35 479.98 668.98 C 482.81 662.60 487.48 658.53 492.75 654.75 C 498.01 650.96 508.41 652.49 510.92 644.92 C 513.42 637.35 521.05 637.89 524.25 631.25 C 527.45 624.60 536.26 623.75 535.98 614.98 C 535.69 606.20 545.58 605.67 553.00 604.00
M 736.00 631.00 
C 737.33 640.60 730.32 650.54 730.68 659.68 C 731.04 668.82 725.13 683.14 714.33 677.67 C 703.53 672.20 695.22 676.44 685.98 672.02 C 676.73 667.61 665.97 671.21 659.25 663.75 C 652.53 656.29 665.92 646.29 663.93 636.93 C 661.93 627.57 668.40 613.94 679.67 618.33 C 690.94 622.72 697.60 620.92 708.02 623.98 C 718.44 627.03 726.46 626.09 736.00 631.00 Z"/>
</g>
<g fill="#FEFFFE" fill-opacity="1.00" stroke="None">
<path d="
M 384.00 131.00 
C 393.12 131.77 393.81 139.24 400.25 145.75 C 406.69 152.26 408.56 153.06 416.92 159.08 C 425.27 165.10 432.12 159.97 422.07 156.93 C 412.03 153.88 409.71 150.19 404.75 144.25 C 399.80 138.30 391.00 131.40 396.25 125.25 C 401.51 119.11 408.13 117.66 411.70 109.69 C 415.26 101.73 416.46 92.94 416.00 84.00 C 415.54 75.06 411.92 69.79 407.25 62.75 C 402.57 55.71 396.80 53.01 389.07 49.93 C 381.35 46.85 371.33 47.96 363.22 50.22 C 355.12 52.49 350.97 56.38 344.75 62.75 C 338.53 69.12 338.81 75.28 335.93 83.93 C 333.05 92.57 337.89 99.44 340.07 107.93 C 342.26 116.41 349.08 117.87 354.07 124.93 C 359.07 131.98 353.08 141.09 357.70 149.31 C 362.31 157.52 368.52 156.24 377.00 152.00
C 376.24 143.93 385.01 139.11 384.00 131.00
M 384.00 53.00 
C 393.08 54.47 401.27 61.35 406.75 69.25 C 412.23 77.14 414.62 93.08 410.07 102.07 C 405.53 111.06 402.11 120.08 390.97 122.97 C 379.84 125.87 381.39 141.86 368.78 139.22 C 356.17 136.58 362.89 120.70 352.77 116.23 C 342.65 111.76 339.90 99.20 340.00 89.00 C 340.10 78.80 343.56 67.46 351.75 60.75 C 359.95 54.04 373.15 51.24 384.00 53.00 Z"/>
</g>
<g fill="#000000" fill-opacity="1.00" stroke="None">
<path d="
M 384.00 53.00 
C 373.15 51.24 359.95 54.04 351.75 60.75 C 343.56 67.46 340.10 78.80 340.00 89.00 C 339.90 99.20 342.65 111.76 352.77 116.23 C 362.89 120.70 356.17 136.58 368.78 139.22 C 381.39 141.86 379.84 125.87 390.97 122.97 C 402.11 120.08 405.53 111.06 410.07 102.07 C 414.62 93.08 412.23 77.14 406.75 69.25 C 401.27 61.35 393.08 54.47 384.00 53.00 Z"/>
</g>
<g fill="#FEFFFE" fill-opacity="1.00" stroke="None">
<path d="
M 670.00 60.00 
C 658.41 58.12 645.86 63.29 639.31 73.31 C 632.75 83.32 633.57 95.94 629.93 107.93 C 626.28 119.91 625.45 129.83 620.98 142.98 C 616.51 156.12 637.33 157.60 646.33 159.67 C 655.33 161.75 675.22 168.45 677.00 155.00 C 678.78 141.55 683.72 132.25 686.07 120.07 C 688.43 107.90 692.68 94.39 690.99 83.01 C 689.31 71.62 680.84 61.76 670.00 60.00
M 670.00 160.00 
C 657.28 154.81 646.54 157.70 633.33 152.67 C 620.12 147.65 630.09 131.43 631.98 120.98 C 633.86 110.52 637.80 95.08 640.33 84.33 C 642.86 73.58 654.59 63.40 665.67 65.33 C 676.75 67.26 687.81 75.93 687.98 88.02 C 688.14 100.12 681.41 112.98 680.00 125.00 C 678.59 137.02 674.00 148.70 670.00 160.00 Z"/>
</g>
<g fill="#000000" fill-opacity="1.00" stroke="None">
<path d="
M 670.00 160.00 
C 674.00 148.70 678.59 137.02 680.00 125.00 C 681.41 112.98 688.14 100.12 687.98 88.02 C 687.81 75.93 676.75 67.26 665.67 65.33 C 654.59 63.40 642.86 73.58 640.33 84.33 C 637.80 95.08 633.86 110.52 631.98 120.98 C 630.09 131.43 620.12 147.65 633.33 152.67 C 646.54 157.70 657.28 154.81 670.00 160.00 Z"/>
</g>
<g fill="#FEFEFE" fill-opacity="1.00" stroke="None">
<path d="
M 777.00 226.00 
C 776.87 231.90 791.80 230.03 795.00 231.00
C 802.66 232.24 804.60 241.74 809.00 247.00
C 813.63 242.19 816.04 234.86 816.00 228.00
C 822.91 225.92 829.12 222.00 836.00 220.00
C 834.12 213.46 825.16 212.77 821.26 207.74 C 817.36 202.71 824.19 188.23 818.23 187.23 C 812.27 186.23 810.07 198.85 803.68 198.66 C 797.29 198.47 791.71 192.29 785.00 192.00
C 785.36 198.62 785.20 206.20 790.00 211.00
C 789.05 218.24 779.35 219.84 777.00 226.00
M 818.00 193.00 
C 820.40 200.90 813.07 208.82 823.03 212.97 C 832.99 217.13 825.75 221.06 818.92 222.92 C 812.10 224.79 813.30 235.78 810.00 240.00
C 802.94 240.27 804.99 226.63 797.99 228.01 C 790.99 229.38 779.46 227.31 786.92 219.92 C 794.38 212.52 790.94 212.36 789.08 203.92 C 787.21 195.49 802.08 200.30 806.00 202.00
C 808.03 197.98 813.43 194.03 818.00 193.00 Z"/>
</g>
<g fill="#FEFFFE" fill-opacity="1.00" stroke="None">
<path d="
M 184.00 198.00 
C 188.87 191.08 202.59 194.51 197.92 202.92 C 193.24 211.32 181.92 202.77 175.07 207.07 C 168.22 211.38 162.52 201.45 155.23 204.23 C 147.94 207.01 145.68 214.17 150.75 220.25 C 155.83 226.33 165.26 221.21 167.01 215.01 C 168.76 208.81 180.62 208.96 187.78 208.78 C 194.94 208.60 203.58 202.91 199.92 194.08 C 196.25 185.26 183.01 192.04 184.00 198.00
M 161.00 205.00 
C 168.45 207.44 162.97 223.92 154.78 219.22 C 146.59 214.53 153.98 202.70 161.00 205.00 Z"/>
</g>
<g fill="#000000" fill-opacity="1.00" stroke="None">
<path d="
M 818.00 193.00 
C 813.43 194.03 808.03 197.98 806.00 202.00
C 802.08 200.30 787.21 195.49 789.08 203.92 C 790.94 212.36 794.38 212.52 786.92 219.92 C 779.46 227.31 790.99 229.38 797.99 228.01 C 804.99 226.63 802.94 240.27 810.00 240.00
C 813.30 235.78 812.10 224.79 818.92 222.92 C 825.75 221.06 832.99 217.13 823.03 212.97 C 813.07 208.82 820.40 200.90 818.00 193.00 Z"/>
</g>
<g fill="#000000" fill-opacity="1.00" stroke="None">
<path d="
M 161.00 205.00 
C 153.98 202.70 146.59 214.53 154.78 219.22 C 162.97 223.92 168.45 207.44 161.00 205.00 Z"/>
</g>
<g fill="#000000" fill-opacity="0.69" stroke="None">
<path d="
M 795.00 231.00 
C 791.80 230.03 776.87 231.90 777.00 226.00
C 774.54 227.21 777.16 229.61 778.00 231.00
C 782.55 232.95 790.29 230.65 795.00 231.00 Z"/>
</g>
<g fill="#FFFFFF" fill-opacity="0.99" stroke="None">
<path d="
M 507.00 322.00 
C 492.51 322.39 483.13 340.35 477.92 351.92 C 472.71 363.49 470.92 388.29 473.24 401.75 C 475.57 415.22 481.63 431.09 494.25 439.61 C 506.86 448.12 524.42 445.88 535.23 434.23 C 546.04 422.58 550.84 412.22 552.22 396.22 C 553.60 380.22 551.50 361.04 544.97 346.03 C 538.44 331.01 523.82 321.55 507.00 322.00
M 515.00 343.00 
C 525.96 344.36 523.13 357.85 525.80 365.25 C 528.47 372.65 527.51 388.90 527.00 398.00 C 526.49 407.10 524.31 422.96 512.30 422.65 C 500.29 422.34 501.87 412.53 498.22 401.78 C 494.58 391.02 498.78 373.15 499.92 363.92 C 501.06 354.69 502.16 341.41 515.00 343.00 Z"/>
</g>
<g fill="#FEFEFE" fill-opacity="0.99" stroke="None">
<path d="
M 452.00 395.00 
C 452.79 382.28 450.94 364.18 452.00 352.00 C 453.06 339.82 453.22 323.93 442.25 323.20 C 431.27 322.47 425.93 332.08 420.80 339.75 C 415.67 347.42 410.09 356.76 404.77 364.77 C 399.45 372.78 395.01 382.03 388.77 388.77 C 382.53 395.51 378.21 411.42 388.78 416.22 C 399.35 421.02 417.21 412.26 429.00 416.00
C 430.32 423.27 425.17 438.32 434.00 441.00 C 442.83 443.68 453.21 440.44 452.01 432.01 C 450.81 423.57 450.80 411.94 462.00 417.00
C 472.35 408.37 468.04 389.58 452.00 395.00
M 430.00 362.00 
C 430.65 372.95 428.18 384.04 430.00 396.00
C 422.18 396.09 415.62 394.98 408.00 396.00
C 413.90 384.60 421.88 371.77 430.00 362.00 Z"/>
</g>
<g fill="#FEFEFE" fill-opacity="0.99" stroke="None">
<path d="
M 626.00 395.00 
C 625.84 383.93 626.22 367.53 626.00 357.00 C 625.78 346.47 628.90 328.78 620.25 324.75 C 611.59 320.73 603.77 326.23 598.31 333.31 C 592.84 340.38 591.01 348.24 584.77 355.77 C 578.53 363.31 577.65 369.34 571.75 376.75 C 565.85 384.17 562.41 390.44 558.31 399.31 C 554.21 408.17 559.69 418.70 571.00 416.00 C 582.31 413.30 591.87 417.62 603.00 414.00
C 604.32 426.37 597.50 440.77 614.00 441.00 C 630.50 441.23 625.37 428.83 626.00 416.00
C 636.15 417.69 641.29 415.21 641.00 405.00 C 640.71 394.79 635.72 393.93 626.00 395.00
M 603.00 395.00 
C 596.33 395.00 589.67 395.00 583.00 395.00
C 589.12 384.06 594.40 374.71 602.00 364.00
C 604.32 373.42 602.35 384.82 603.00 395.00 Z"/>
</g>
<g fill="#000000" fill-opacity="0.00" stroke="None">
<path d="
M 515.00 343.00 
C 502.16 341.41 501.06 354.69 499.92 363.92 C 498.78 373.15 494.58 391.02 498.22 401.78 C 501.87 412.53 500.29 422.34 512.30 422.65 C 524.31 422.96 526.49 407.10 527.00 398.00 C 527.51 388.90 528.47 372.65 525.80 365.25 C 523.13 357.85 525.96 344.36 515.00 343.00 Z"/>
</g>
<g fill="#000000" fill-opacity="0.00" stroke="None">
<path d="
M 430.00 362.00 
C 421.88 371.77 413.90 384.60 408.00 396.00
C 415.62 394.98 422.18 396.09 430.00 396.00
C 428.18 384.04 430.65 372.95 430.00 362.00 Z"/>
</g>
<g fill="#000000" fill-opacity="0.00" stroke="None">
<path d="
M 603.00 395.00 
C 602.35 384.82 604.32 373.42 602.00 364.00
C 594.40 374.71 589.12 384.06 583.00 395.00
C 589.67 395.00 596.33 395.00 603.00 395.00 Z"/>
</g>
<g fill="#FEFFFE" fill-opacity="1.00" stroke="None">
<path d="
M 185.00 414.00 
C 173.69 412.16 159.24 417.77 153.78 427.78 C 148.31 437.78 149.06 453.60 157.08 461.92 C 165.10 470.24 164.93 481.55 174.10 488.90 C 183.27 496.25 189.88 476.13 195.08 469.08 C 200.29 462.03 209.29 446.80 205.98 437.03 C 202.66 427.25 196.05 415.79 185.00 414.00
M 175.00 486.00 
C 168.75 467.62 146.92 452.96 155.93 431.93 C 164.93 410.89 196.99 415.03 201.77 435.23 C 206.55 455.43 189.04 474.80 175.00 486.00 Z"/>
</g>
<g fill="#000000" fill-opacity="1.00" stroke="None">
<path d="
M 175.00 486.00 
C 189.04 474.80 206.55 455.43 201.77 435.23 C 196.99 415.03 164.93 410.89 155.93 431.93 C 146.92 452.96 168.75 467.62 175.00 486.00
M 184.00 430.00 
C 190.60 432.22 193.23 447.44 185.75 451.75 C 178.27 456.06 169.44 454.57 166.68 444.32 C 163.92 434.08 173.52 426.48 184.00 430.00 Z"/>
</g>
<g fill="#FEFFFE" fill-opacity="1.00" stroke="None">
<path d="
M 888.00 425.00 
C 879.72 425.65 868.31 431.35 860.00 430.00 C 851.70 428.65 841.09 442.22 851.00 441.00
C 845.56 454.59 835.87 459.06 826.25 471.25 C 816.64 483.45 837.44 500.85 847.25 488.25 C 857.06 475.64 864.18 472.59 875.00 462.00
C 875.30 464.70 873.85 466.63 875.00 469.00
C 891.49 462.19 886.36 439.82 888.00 425.00
M 872.00 432.00 
C 876.84 428.26 887.26 430.10 884.06 437.08 C 880.87 444.06 872.02 436.65 872.00 432.00
M 866.00 435.00 
C 872.05 434.91 884.81 447.76 877.25 453.25 C 869.69 458.73 866.39 465.30 859.25 471.25 C 852.10 477.20 849.65 484.00 841.75 489.75 C 833.86 495.50 822.72 476.88 831.25 472.25 C 839.78 467.61 841.69 458.10 849.25 454.25 C 856.80 450.40 857.73 435.13 866.00 435.00 Z"/>
</g>
<g fill="#FEFEFE" fill-opacity="1.00" stroke="None">
<path d="
M 184.00 430.00 
C 173.52 426.48 163.92 434.08 166.68 444.32 C 169.44 454.57 178.27 456.06 185.75 451.75 C 193.23 447.44 190.60 432.22 184.00 430.00
M 182.00 433.00 
C 192.79 435.90 185.17 455.49 174.78 450.22 C 164.39 444.95 171.55 430.19 182.00 433.00 Z"/>
</g>
<g fill="#000000" fill-opacity="1.00" stroke="None">
<path d="
M 872.00 432.00 
C 872.02 436.65 880.87 444.06 884.06 437.08 C 887.26 430.10 876.84 428.26 872.00 432.00 Z"/>
</g>
<g fill="#000000" fill-opacity="1.00" stroke="None">
<path d="
M 182.00 433.00 
C 171.55 430.19 164.39 444.95 174.78 450.22 C 185.17 455.49 192.79 435.90 182.00 433.00 Z"/>
</g>
<g fill="#000000" fill-opacity="1.00" stroke="None">
<path d="
M 866.00 435.00 
C 857.73 435.13 856.80 450.40 849.25 454.25 C 841.69 458.10 839.78 467.61 831.25 472.25 C 822.72 476.88 833.86 495.50 841.75 489.75 C 849.65 484.00 852.10 477.20 859.25 471.25 C 866.39 465.30 869.69 458.73 877.25 453.25 C 884.81 447.76 872.05 434.91 866.00 435.00 Z"/>
</g>
<g fill="#FEFFFE" fill-opacity="1.00" stroke="None">
<path d="
M 329.00 590.00 
C 318.94 588.56 309.03 594.04 304.77 602.77 C 300.51 611.50 300.40 623.13 307.75 630.25 C 315.11 637.37 322.38 643.23 333.78 637.78 C 345.18 632.33 348.12 641.86 357.93 647.07 C 367.74 652.29 370.85 634.64 359.75 631.25 C 348.65 627.86 350.93 615.26 348.98 606.02 C 347.02 596.79 338.53 591.36 329.00 590.00
M 328.00 595.00 
C 352.40 596.84 350.03 636.76 325.00 635.00 C 299.97 633.23 302.23 593.05 328.00 595.00 Z"/>
</g>
<g fill="#000000" fill-opacity="1.00" stroke="None">
<path d="
M 328.00 595.00 
C 302.23 593.05 299.97 633.23 325.00 635.00 C 350.03 636.76 352.40 596.84 328.00 595.00 Z"/>
</g>
<g fill="#FEFEFE" fill-opacity="1.00" stroke="None">
<path d="
M 553.00 604.00 
C 545.58 605.67 535.69 606.20 535.98 614.98 C 536.26 623.75 527.45 624.60 524.25 631.25 C 521.05 637.89 513.42 637.35 510.92 644.92 C 508.41 652.49 498.01 650.96 492.75 654.75 C 487.48 658.53 482.81 662.60 479.98 668.98 C 477.14 675.35 487.91 683.17 493.25 678.25 C 498.59 673.32 501.48 669.32 507.00 665.00
C 502.89 652.69 515.00 645.38 521.75 637.75 C 528.50 630.12 537.34 619.79 549.00 622.00
C 550.39 615.99 553.54 610.49 553.00 604.00
M 498.00 655.00 
C 504.82 656.75 504.34 669.49 496.92 668.92 C 489.50 668.35 489.33 652.77 498.00 655.00
M 482.00 668.00 
C 487.36 662.79 496.82 666.05 493.22 674.22 C 489.63 682.40 481.23 674.07 482.00 668.00 Z"/>
</g>
<g fill="#FEFEFE" fill-opacity="1.00" stroke="None">
<path d="
M 736.00 631.00 
C 726.46 626.09 718.44 627.03 708.02 623.98 C 697.60 620.92 690.94 622.72 679.67 618.33 C 668.40 613.94 661.93 627.57 663.93 636.93 C 665.92 646.29 652.53 656.29 659.25 663.75 C 665.97 671.21 676.73 667.61 685.98 672.02 C 695.22 676.44 703.53 672.20 714.33 677.67 C 725.13 683.14 731.04 668.82 730.68 659.68 C 730.32 650.54 737.33 640.60 736.00 631.00
M 728.00 632.00 
C 720.41 637.40 707.54 651.87 696.78 650.22 C 686.01 648.56 679.86 629.44 672.00 623.00
C 690.56 622.50 709.62 628.43 728.00 632.00
M 664.00 657.00 
C 664.46 650.76 664.21 635.49 667.93 629.93 C 671.65 624.37 680.99 639.20 682.97 644.03 C 684.96 648.86 669.36 655.43 664.00 657.00
M 732.00 640.00 
C 728.37 648.64 728.57 658.33 725.00 667.00
C 720.10 664.98 708.30 655.98 711.33 649.33 C 714.36 642.68 726.63 640.56 732.00 640.00
M 689.00 649.00 
C 691.22 656.95 700.64 655.43 706.00 652.00
C 711.55 658.75 716.98 665.37 721.00 673.00
C 702.94 674.51 685.14 666.57 667.00 665.00
C 669.40 655.25 681.41 653.32 689.00 649.00 Z"/>
</g>
<g fill="#000000" fill-opacity="1.00" stroke="None">
<path d="
M 728.00 632.00 
C 709.62 628.43 690.56 622.50 672.00 623.00
C 679.86 629.44 686.01 648.56 696.78 650.22 C 707.54 651.87 720.41 637.40 728.00 632.00 Z"/>
</g>
<g fill="#000000" fill-opacity="1.00" stroke="None">
<path d="
M 664.00 657.00 
C 669.36 655.43 684.96 648.86 682.97 644.03 C 680.99 639.20 671.65 624.37 667.93 629.93 C 664.21 635.49 664.46 650.76 664.00 657.00 Z"/>
</g>
<g fill="#000000" fill-opacity="1.00" stroke="None">
<path d="
M 732.00 640.00 
C 726.63 640.56 714.36 642.68 711.33 649.33 C 708.30 655.98 720.10 664.98 725.00 667.00
C 728.57 658.33 728.37 648.64 732.00 640.00 Z"/>
</g>
<g fill="#000000" fill-opacity="1.00" stroke="None">
<path d="
M 689.00 649.00 
C 681.41 653.32 669.40 655.25 667.00 665.00
C 685.14 666.57 702.94 674.51 721.00 673.00
C 716.98 665.37 711.55 658.75 706.00 652.00
C 700.64 655.43 691.22 656.95 689.00 649.00 Z"/>
</g>
<g fill="#000000" fill-opacity="1.00" stroke="None">
<path d="
M 498.00 655.00 
C 489.33 652.77 489.50 668.35 496.92 668.92 C 504.34 669.49 504.82 656.75 498.00 655.00 Z"/>
</g>
<g fill="#000000" fill-opacity="1.00" stroke="None">
<path d="
M 482.00 668.00 
C 481.23 674.07 489.63 682.40 493.22 674.22 C 496.82 666.05 487.36 662.79 482.00 668.00 Z"/>
</g>
</svg>